<?xml version="1.0" encoding="UTF-8" standalone="no"?>
<!DOCTYPE svg PUBLIC "-//W3C//DTD SVG 1.1//EN"
 "http://www.w3.org/Graphics/SVG/1.1/DTD/svg11.dtd">
<!-- Generated by graphviz version 8.0.5 (20230430.1635)
 -->
<!-- Title: cheat_sheet Pages: 1 -->
<svg width="1799pt" height="965pt"
 viewBox="0.00 0.00 1798.95 965.00" xmlns="http://www.w3.org/2000/svg" xmlns:xlink="http://www.w3.org/1999/xlink">
<g id="graph0" class="graph" transform="scale(1 1) rotate(0) translate(4 961)">
<title>cheat_sheet</title>
<polygon fill="white" stroke="none" points="-4,4 -4,-961 1794.95,-961 1794.95,4 -4,4"/>
<!-- start -->
<g id="node1" class="node">
<title>start</title>
<polygon fill="none" stroke="black" points="1079.7,-957 1025.7,-957 1025.7,-921 1079.7,-921 1079.7,-957"/>
<text text-anchor="middle" x="1052.7" y="-933.95" font-family="Times,serif" font-size="14.00">Start</text>
</g>
<!-- emaintSyncAll -->
<g id="node8" class="node">
<title>emaintSyncAll</title>
<polygon fill="none" stroke="black" points="1279.7,-832.5 1161.7,-832.5 1161.7,-796.5 1279.7,-796.5 1279.7,-832.5"/>
<text text-anchor="middle" x="1220.7" y="-809.45" font-family="Times,serif" font-size="14.00">emaint sync &#45;&#45;auto</text>
</g>
<!-- start&#45;&gt;emaintSyncAll -->
<g id="edge22" class="edge">
<title>start&#45;&gt;emaintSyncAll</title>
<path fill="none" stroke="black" d="M1076.41,-920.71C1105.6,-899.43 1155.3,-863.19 1188.07,-839.29"/>
<polygon fill="black" stroke="black" points="1189.81,-841.62 1195.83,-832.9 1185.69,-835.97 1189.81,-841.62"/>
<text text-anchor="middle" x="1164.7" y="-871.7" font-family="Times,serif" font-size="14.00">update</text>
</g>
<!-- joint2 -->
<g id="node16" class="node">
<title>joint2</title>
</g>
<!-- start&#45;&gt;joint2 -->
<g id="edge4" class="edge">
<title>start&#45;&gt;joint2</title>
<path fill="none" stroke="black" d="M1025.54,-934.07C965.41,-925.35 816.52,-903.7 691.95,-885 491.98,-854.98 242.63,-816.11 238.74,-815.51"/>
<text text-anchor="middle" x="718.57" y="-871.7" font-family="Times,serif" font-size="14.00">searching</text>
</g>
<!-- joint3 -->
<g id="node17" class="node">
<title>joint3</title>
</g>
<!-- start&#45;&gt;joint3 -->
<g id="edge1" class="edge">
<title>start&#45;&gt;joint3</title>
<path fill="none" stroke="black" d="M1025.38,-931.76C983.1,-922.06 899.29,-902.63 828.45,-885 711.83,-855.97 567.29,-816.75 562.8,-815.53"/>
<text text-anchor="middle" x="853.82" y="-871.7" font-family="Times,serif" font-size="14.00">installing</text>
</g>
<!-- joint4 -->
<g id="node18" class="node">
<title>joint4</title>
</g>
<!-- start&#45;&gt;joint4 -->
<g id="edge13" class="edge">
<title>start&#45;&gt;joint4</title>
<path fill="none" stroke="black" d="M1047.54,-920.64C1043.97,-906.62 1040.15,-886.36 1041.95,-868.5 1044.27,-845.33 1052.18,-817.31 1052.67,-815.58"/>
<text text-anchor="middle" x="1058.57" y="-871.7" font-family="Times,serif" font-size="14.00">listing</text>
</g>
<!-- joint5 -->
<g id="node19" class="node">
<title>joint5</title>
</g>
<!-- start&#45;&gt;joint5 -->
<g id="edge15" class="edge">
<title>start&#45;&gt;joint5</title>
<path fill="none" stroke="black" d="M1080.12,-931.46C1173.12,-909.09 1470.7,-835.92 1470.7,-815.5 1470.7,-815.5 1470.7,-815.5 1470.7,-407 1470.7,-307.04 588.64,-268.6 574.86,-268.01"/>
<text text-anchor="middle" x="1493.57" y="-597.95" font-family="Times,serif" font-size="14.00">overlays</text>
</g>
<!-- joint6 -->
<g id="node20" class="node">
<title>joint6</title>
</g>
<!-- start&#45;&gt;joint6 -->
<g id="edge17" class="edge">
<title>start&#45;&gt;joint6</title>
<path fill="none" stroke="black" d="M1025.44,-925.35C959.04,-894.54 793.96,-817.94 788.82,-815.56"/>
<text text-anchor="middle" x="968.57" y="-871.7" font-family="Times,serif" font-size="14.00">uninstalling</text>
</g>
<!-- joint7 -->
<g id="node21" class="node">
<title>joint7</title>
</g>
<!-- start&#45;&gt;joint7 -->
<g id="edge20" class="edge">
<title>start&#45;&gt;joint7</title>
<path fill="none" stroke="black" d="M1079.92,-931.44C1095.57,-927.89 1115.65,-923.68 1133.7,-921 1313.76,-894.26 1368.14,-939.92 1541.7,-885 1599.54,-866.7 1659.78,-817.08 1661.65,-815.54"/>
<text text-anchor="middle" x="1618.32" y="-871.7" font-family="Times,serif" font-size="14.00">miscellaneous</text>
</g>
<!-- emergeAsk -->
<g id="node2" class="node">
<title>emergeAsk</title>
<polygon fill="none" stroke="black" points="551.07,-691.5 480.32,-691.5 480.32,-655.5 551.07,-655.5 551.07,-691.5"/>
<text text-anchor="middle" x="515.7" y="-668.45" font-family="Times,serif" font-size="14.00">emerge &#45;a</text>
</g>
<!-- guru -->
<g id="node13" class="node">
<title>guru</title>
<g id="a_node13"><a xlink:href="https://gitweb.gentoo.org/repo/proj/guru.git/tree/" xlink:title="Check the guru overlay">
<ellipse fill="none" stroke="black" cx="473.7" cy="-532.5" rx="97.93" ry="18"/>
<text text-anchor="middle" x="473.7" y="-527.45" font-family="Times,serif" font-size="14.00">Check the guru overlay</text>
</a>
</g>
</g>
<!-- emergeAsk&#45;&gt;guru -->
<g id="edge3" class="edge">
<title>emergeAsk&#45;&gt;guru</title>
<path fill="none" stroke="black" d="M510.46,-655.18C503.32,-631.53 490.44,-588.91 481.98,-560.9"/>
<polygon fill="black" stroke="black" points="485.11,-560.17 478.87,-551.61 478.41,-562.19 485.11,-560.17"/>
<text text-anchor="middle" x="612.7" y="-597.95" font-family="Times,serif" font-size="14.00">Are there no ebuilds to satisfy a package?</text>
</g>
<!-- emergeUpdate -->
<g id="node3" class="node">
<title>emergeUpdate</title>
<polygon fill="none" stroke="black" points="1301.57,-691.5 1149.82,-691.5 1149.82,-655.5 1301.57,-655.5 1301.57,-691.5"/>
<text text-anchor="middle" x="1225.7" y="-668.45" font-family="Times,serif" font-size="14.00">emerge &#45;avuDN @world</text>
</g>
<!-- emergeDepclean -->
<g id="node12" class="node">
<title>emergeDepclean</title>
<polygon fill="none" stroke="black" points="1081.32,-550.5 964.07,-550.5 964.07,-514.5 1081.32,-514.5 1081.32,-550.5"/>
<text text-anchor="middle" x="1022.7" y="-527.45" font-family="Times,serif" font-size="14.00">emerge &#45;&#45;depclean</text>
</g>
<!-- emergeUpdate&#45;&gt;emergeDepclean -->
<g id="edge24" class="edge">
<title>emergeUpdate&#45;&gt;emergeDepclean</title>
<path fill="none" stroke="black" d="M1200.4,-655.18C1164.21,-630.4 1097.57,-584.77 1056.98,-556.97"/>
<polygon fill="black" stroke="black" points="1059.22,-553.58 1049,-550.82 1055.27,-559.36 1059.22,-553.58"/>
</g>
<!-- emergeSearch -->
<g id="node4" class="node">
<title>emergeSearch</title>
<polygon fill="none" stroke="black" points="358.57,-691.5 254.82,-691.5 254.82,-655.5 358.57,-655.5 358.57,-691.5"/>
<text text-anchor="middle" x="306.7" y="-668.45" font-family="Times,serif" font-size="14.00">emerge &#45;&#45;search</text>
</g>
<!-- emergeSearch&#45;&gt;guru -->
<g id="edge8" class="edge">
<title>emergeSearch&#45;&gt;guru</title>
<path fill="none" stroke="black" d="M322.59,-655.03C339.49,-636.92 367.42,-608.26 394.2,-586.5 407.48,-575.71 422.97,-565 436.73,-556.07"/>
<polygon fill="black" stroke="black" points="438.39,-558.52 444.94,-550.19 434.62,-552.63 438.39,-558.52"/>
<text text-anchor="middle" x="429.95" y="-597.95" font-family="Times,serif" font-size="14.00">It isn&#39;t there?</text>
</g>
<!-- gpoZugaina -->
<g id="node5" class="node">
<title>gpoZugaina</title>
<g id="a_node5"><a xlink:href="https://graphviz.org/docs/nodes/" xlink:title="Go to gpo.zugaina.org">
<ellipse fill="none" stroke="black" cx="200.7" cy="-408" rx="94.34" ry="18"/>
<text text-anchor="middle" x="200.7" y="-402.95" font-family="Times,serif" font-size="14.00">Go to gpo.zugaina.org</text>
</a>
</g>
</g>
<!-- ebuildWriting -->
<g id="node9" class="node">
<title>ebuildWriting</title>
<g id="a_node9"><a xlink:href="https://devmanual.gentoo.org/ebuild-writing/index.html" xlink:title="Go to ebuild writing guide">
<ellipse fill="none" stroke="black" cx="109.7" cy="-267" rx="109.7" ry="18"/>
<text text-anchor="middle" x="109.7" y="-261.95" font-family="Times,serif" font-size="14.00">Go to ebuild writing guide</text>
</a>
</g>
</g>
<!-- gpoZugaina&#45;&gt;ebuildWriting -->
<g id="edge12" class="edge">
<title>gpoZugaina&#45;&gt;ebuildWriting</title>
<path fill="none" stroke="black" d="M142.04,-393.62C121.13,-385.72 99.74,-373.32 87.45,-354 76.05,-336.08 83.35,-312.55 92.54,-294.63"/>
<polygon fill="black" stroke="black" points="96.06,-296.51 97.88,-286.07 89.95,-293.09 96.06,-296.51"/>
<text text-anchor="middle" x="159.32" y="-340.7" font-family="Times,serif" font-size="14.00">It&#39;s not there either? </text>
<text text-anchor="middle" x="159.32" y="-324.2" font-family="Times,serif" font-size="14.00"> You can write it yourself!</text>
</g>
<!-- gpoZugaina&#45;&gt;joint5 -->
<g id="edge10" class="edge">
<title>gpoZugaina&#45;&gt;joint5</title>
<path fill="none" stroke="black" d="M223.38,-390.31C250.71,-370.95 298.67,-339.34 344.2,-321 440.18,-282.33 570.55,-268.44 574.6,-268.01"/>
<text text-anchor="middle" x="418.95" y="-340.7" font-family="Times,serif" font-size="14.00">It&#39;s in an overlay you don&#39;t </text>
<text text-anchor="middle" x="418.95" y="-324.2" font-family="Times,serif" font-size="14.00"> have in your system?</text>
</g>
<!-- eselectRepo -->
<g id="node6" class="node">
<title>eselectRepo</title>
<polygon fill="none" stroke="black" points="697.07,-160.5 452.32,-160.5 452.32,-124.5 697.07,-124.5 697.07,-160.5"/>
<text text-anchor="middle" x="574.7" y="-137.45" font-family="Times,serif" font-size="14.00">eselect repository enable &lt;overlay name&gt;</text>
</g>
<!-- emaintSync -->
<g id="node7" class="node">
<title>emaintSync</title>
<polygon fill="none" stroke="black" points="669.32,-36 480.07,-36 480.07,0 669.32,0 669.32,-36"/>
<text text-anchor="middle" x="574.7" y="-12.95" font-family="Times,serif" font-size="14.00">emaint sync &#45;r &lt;overlay name&gt;</text>
</g>
<!-- eselectRepo&#45;&gt;emaintSync -->
<g id="edge11" class="edge">
<title>eselectRepo&#45;&gt;emaintSync</title>
<path fill="none" stroke="black" d="M574.7,-124.21C574.7,-104.14 574.7,-70.78 574.7,-47"/>
<polygon fill="black" stroke="black" points="578.2,-47.2 574.7,-37.2 571.2,-47.2 578.2,-47.2"/>
<text text-anchor="middle" x="676.7" y="-75.2" font-family="Times,serif" font-size="14.00">Sync the repository with your system</text>
</g>
<!-- emaintSyncAll&#45;&gt;emergeUpdate -->
<g id="edge23" class="edge">
<title>emaintSyncAll&#45;&gt;emergeUpdate</title>
<path fill="none" stroke="black" d="M1211.67,-796.37C1206.85,-786.24 1201.41,-772.99 1198.95,-760.5 1196.11,-746.11 1195.55,-741.77 1198.95,-727.5 1201.06,-718.62 1204.92,-709.53 1209.05,-701.45"/>
<polygon fill="black" stroke="black" points="1212.59,-703.3 1214.34,-692.85 1206.45,-699.92 1212.59,-703.3"/>
<text text-anchor="middle" x="1293.57" y="-738.95" font-family="Times,serif" font-size="14.00">Updates to your installed packages</text>
</g>
<!-- qlist -->
<g id="node10" class="node">
<title>qlist</title>
<polygon fill="none" stroke="black" points="1041.45,-691.5 963.95,-691.5 963.95,-655.5 1041.45,-655.5 1041.45,-691.5"/>
<text text-anchor="middle" x="1002.7" y="-668.45" font-family="Times,serif" font-size="14.00" fill="indigo">qlist &#45;IURv</text>
</g>
<!-- emergeDeselect -->
<g id="node11" class="node">
<title>emergeDeselect</title>
<polygon fill="none" stroke="black" points="843.32,-691.5 666.07,-691.5 666.07,-655.5 843.32,-655.5 843.32,-691.5"/>
<text text-anchor="middle" x="754.7" y="-668.45" font-family="Times,serif" font-size="14.00">emerge &#45;&#45;deselect &lt;package&gt;</text>
</g>
<!-- emergeDeselect&#45;&gt;emergeDepclean -->
<g id="edge19" class="edge">
<title>emergeDeselect&#45;&gt;emergeDepclean</title>
<path fill="none" stroke="black" d="M785.52,-655.04C817.09,-637.32 867.7,-609.3 912.2,-586.5 932.68,-576.01 955.57,-564.92 975.19,-555.62"/>
<polygon fill="black" stroke="black" points="976.57,-558.36 984.12,-550.92 973.58,-552.03 976.57,-558.36"/>
<text text-anchor="middle" x="995.95" y="-606.2" font-family="Times,serif" font-size="14.00">This uninstalls the package &amp; </text>
<text text-anchor="middle" x="995.95" y="-589.7" font-family="Times,serif" font-size="14.00"> its unneeded dependencies</text>
</g>
<!-- guru&#45;&gt;gpoZugaina -->
<g id="edge9" class="edge">
<title>guru&#45;&gt;gpoZugaina</title>
<path fill="none" stroke="black" d="M437.73,-515.36C388.49,-493.26 300.08,-453.6 246.27,-429.45"/>
<polygon fill="black" stroke="black" points="247.87,-425.88 237.31,-424.98 245,-432.27 247.87,-425.88"/>
<text text-anchor="middle" x="406.2" y="-465.2" font-family="Times,serif" font-size="14.00">It isn&#39;t there either?</text>
</g>
<!-- guru&#45;&gt;joint5 -->
<g id="edge7" class="edge">
<title>guru&#45;&gt;joint5</title>
<path fill="none" stroke="black" d="M480.32,-514.21C502.44,-456.51 572.46,-273.83 574.65,-268.14"/>
<text text-anchor="middle" x="651.07" y="-402.95" font-family="Times,serif" font-size="14.00">You don&#39;t have guru enabled in your system?</text>
</g>
<!-- genlop -->
<g id="node14" class="node">
<title>genlop</title>
<polygon fill="none" stroke="black" points="1705.45,-691.5 1633.95,-691.5 1633.95,-655.5 1705.45,-655.5 1705.45,-691.5"/>
<text text-anchor="middle" x="1669.7" y="-668.45" font-family="Times,serif" font-size="14.00" fill="#0000cd">genlop &#45;lu</text>
</g>
<!-- joint1 -->
<g id="node15" class="node">
<title>joint1</title>
</g>
<!-- joint2&#45;&gt;emergeSearch -->
<g id="edge5" class="edge">
<title>joint2&#45;&gt;emergeSearch</title>
<path fill="none" stroke="black" d="M238.75,-813.4C240.21,-810.4 274.02,-741.3 293.38,-701.72"/>
<polygon fill="black" stroke="black" points="296.94,-703.4 298.19,-692.88 290.66,-700.32 296.94,-703.4"/>
<text text-anchor="middle" x="368.2" y="-747.2" font-family="Times,serif" font-size="14.00">Search a package in </text>
<text text-anchor="middle" x="368.2" y="-730.7" font-family="Times,serif" font-size="14.00"> overlays present in your system</text>
</g>
<!-- joint2&#45;&gt;gpoZugaina -->
<g id="edge6" class="edge">
<title>joint2&#45;&gt;gpoZugaina</title>
<path fill="none" stroke="black" d="M238.68,-813.45C237.78,-811.44 209.11,-746.77 200.7,-691.5 186.67,-599.28 193.48,-488.17 197.92,-437.13"/>
<polygon fill="black" stroke="black" points="201.48,-437.61 198.9,-427.33 194.51,-436.98 201.48,-437.61"/>
<text text-anchor="middle" x="255.2" y="-606.2" font-family="Times,serif" font-size="14.00">Search the package in </text>
<text text-anchor="middle" x="255.2" y="-589.7" font-family="Times,serif" font-size="14.00"> &quot;all&quot; the overlays</text>
</g>
<!-- joint3&#45;&gt;emergeAsk -->
<g id="edge2" class="edge">
<title>joint3&#45;&gt;emergeAsk</title>
<path fill="none" stroke="black" d="M562.66,-813.4C561.65,-810.42 538.48,-741.89 525.07,-702.22"/>
<polygon fill="black" stroke="black" points="528.09,-701.23 521.57,-692.88 521.46,-703.47 528.09,-701.23"/>
<text text-anchor="middle" x="593.57" y="-738.95" font-family="Times,serif" font-size="14.00">a specific package</text>
</g>
<!-- joint4&#45;&gt;qlist -->
<g id="edge14" class="edge">
<title>joint4&#45;&gt;qlist</title>
<path fill="none" stroke="black" d="M1052.66,-813.4C1051.59,-810.42 1026.94,-741.89 1012.67,-702.22"/>
<polygon fill="black" stroke="black" points="1015.63,-701.11 1008.95,-692.88 1009.04,-703.47 1015.63,-701.11"/>
</g>
<!-- joint5&#45;&gt;eselectRepo -->
<g id="edge16" class="edge">
<title>joint5&#45;&gt;eselectRepo</title>
<path fill="none" stroke="black" d="M574.7,-265.91C574.7,-263.37 574.7,-206.78 574.7,-171.44"/>
<polygon fill="black" stroke="black" points="578.2,-171.81 574.7,-161.81 571.2,-171.81 578.2,-171.81"/>
<text text-anchor="middle" x="614.82" y="-199.7" font-family="Times,serif" font-size="14.00">add an overlay</text>
</g>
<!-- joint6&#45;&gt;emergeDeselect -->
<g id="edge18" class="edge">
<title>joint6&#45;&gt;emergeDeselect</title>
<path fill="none" stroke="black" d="M788.55,-813.45C785.51,-812.33 736.62,-793.98 720.2,-760.5 710.54,-740.82 720.94,-717.73 732.78,-700.43"/>
<polygon fill="black" stroke="black" points="735.9,-703.09 739,-692.96 730.26,-698.95 735.9,-703.09"/>
<text text-anchor="middle" x="845.95" y="-738.95" font-family="Times,serif" font-size="14.00">This removes the package from the world file</text>
</g>
<!-- joint7&#45;&gt;genlop -->
<g id="edge21" class="edge">
<title>joint7&#45;&gt;genlop</title>
<path fill="none" stroke="black" d="M1661.7,-813.4C1661.87,-810.43 1665.79,-742.47 1668.07,-702.73"/>
<polygon fill="black" stroke="black" points="1671.62,-703.06 1668.7,-692.88 1664.63,-702.66 1671.62,-703.06"/>
<text text-anchor="middle" x="1728.32" y="-747.2" font-family="Times,serif" font-size="14.00">Check installation and </text>
<text text-anchor="middle" x="1728.32" y="-730.7" font-family="Times,serif" font-size="14.00"> uninstallation history</text>
</g>
<!-- joint8 -->
<g id="node22" class="node">
<title>joint8</title>
</g>
<!-- joint9 -->
<g id="node23" class="node">
<title>joint9</title>
</g>
<!-- joint10 -->
<g id="node24" class="node">
<title>joint10</title>
</g>
<!-- joint11 -->
<g id="node25" class="node">
<title>joint11</title>
</g>
</g>
</svg>
