<?xml version="1.0" encoding="UTF-8" standalone="no"?>
<!DOCTYPE svg PUBLIC "-//W3C//DTD SVG 1.1//EN"
 "http://www.w3.org/Graphics/SVG/1.1/DTD/svg11.dtd">
<!-- Generated by graphviz version 8.0.5 (20230430.1635)
 -->
<!-- Title: cheat_sheet Pages: 1 -->
<svg width="1539pt" height="809pt"
 viewBox="0.00 0.00 1539.38 808.94" xmlns="http://www.w3.org/2000/svg" xmlns:xlink="http://www.w3.org/1999/xlink">
<g id="graph0" class="graph" transform="scale(1 1) rotate(0) translate(4 804.94)">
<title>cheat_sheet</title>
<polygon fill="white" stroke="none" points="-4,4 -4,-804.94 1535.38,-804.94 1535.38,4 -4,4"/>
<!-- start -->
<g id="node1" class="node">
<title>start</title>
<polygon fill="none" stroke="black" points="834.88,-800.94 780.88,-800.94 780.88,-764.94 834.88,-764.94 834.88,-800.94"/>
<text text-anchor="middle" x="807.88" y="-777.89" font-family="Times,serif" font-size="14.00">Start</text>
</g>
<!-- joint2 -->
<g id="node12" class="node">
<title>joint2</title>
</g>
<!-- start&#45;&gt;joint2 -->
<g id="edge4" class="edge">
<title>start&#45;&gt;joint2</title>
<path fill="none" stroke="black" d="M780.59,-776.04C688.38,-756.11 390.75,-691.76 330.55,-678.75"/>
<polygon fill="black" stroke="black" points="331.45,-675.15 320.94,-676.45 329.97,-681.99 331.45,-675.15"/>
<text text-anchor="middle" x="575.75" y="-715.64" font-family="Times,serif" font-size="14.00">searching</text>
</g>
<!-- joint3 -->
<g id="node13" class="node">
<title>joint3</title>
</g>
<!-- start&#45;&gt;joint3 -->
<g id="edge1" class="edge">
<title>start&#45;&gt;joint3</title>
<path fill="none" stroke="black" d="M780.77,-767.05C728.68,-738.42 619.36,-678.35 615.96,-676.48"/>
<text text-anchor="middle" x="732" y="-715.64" font-family="Times,serif" font-size="14.00">installing</text>
</g>
<!-- joint4 -->
<g id="node14" class="node">
<title>joint4</title>
</g>
<!-- start&#45;&gt;joint4 -->
<g id="edge11" class="edge">
<title>start&#45;&gt;joint4</title>
<path fill="none" stroke="black" d="M807.88,-764.52C807.88,-735.49 807.88,-680.04 807.88,-676.61"/>
<text text-anchor="middle" x="824.75" y="-715.64" font-family="Times,serif" font-size="14.00">listing</text>
</g>
<!-- joint5 -->
<g id="node15" class="node">
<title>joint5</title>
</g>
<!-- start&#45;&gt;joint5 -->
<g id="edge13" class="edge">
<title>start&#45;&gt;joint5</title>
<path fill="none" stroke="black" d="M835.16,-776.7C900.95,-763.29 1062.88,-725.31 1062.88,-676.44 1062.88,-676.44 1062.88,-676.44 1062.88,-407 1062.88,-308.62 645.47,-268.63 638.95,-268.01"/>
<text text-anchor="middle" x="1085.75" y="-546.95" font-family="Times,serif" font-size="14.00">overlays</text>
</g>
<!-- joint6 -->
<g id="node16" class="node">
<title>joint6</title>
</g>
<!-- start&#45;&gt;joint6 -->
<g id="edge15" class="edge">
<title>start&#45;&gt;joint6</title>
<path fill="none" stroke="black" d="M835.18,-775.84C850.85,-772.44 870.92,-768.23 888.88,-764.94 990.65,-746.31 1019.14,-756.49 1118.88,-728.94 1178,-712.61 1246.69,-677.56 1248.82,-676.47"/>
<text text-anchor="middle" x="1198.75" y="-715.64" font-family="Times,serif" font-size="14.00">uninstalling</text>
</g>
<!-- emergeAsk -->
<g id="node2" class="node">
<title>emergeAsk</title>
<polygon fill="none" stroke="black" points="657.25,-498 586.5,-498 586.5,-462 657.25,-462 657.25,-498"/>
<text text-anchor="middle" x="621.88" y="-474.95" font-family="Times,serif" font-size="14.00">emerge &#45;a</text>
</g>
<!-- emergeAsk&#45;&gt;joint5 -->
<g id="edge3" class="edge">
<title>emergeAsk&#45;&gt;joint5</title>
<path fill="none" stroke="black" d="M623.27,-461.73C626.65,-419.68 635.26,-312.92 638.01,-278.72"/>
<polygon fill="black" stroke="black" points="641.55,-279.35 638.87,-269.1 634.57,-278.79 641.55,-279.35"/>
<text text-anchor="middle" x="743.88" y="-402.95" font-family="Times,serif" font-size="14.00">Are there no ebuilds to satisfy a package?</text>
</g>
<!-- emergeSearch -->
<g id="node3" class="node">
<title>emergeSearch</title>
<polygon fill="none" stroke="black" points="103.75,-570 0,-570 0,-534 103.75,-534 103.75,-570"/>
<text text-anchor="middle" x="51.88" y="-546.95" font-family="Times,serif" font-size="14.00">emerge &#45;&#45;search</text>
</g>
<!-- gpoZugaina -->
<g id="node4" class="node">
<title>gpoZugaina</title>
<g id="a_node4"><a xlink:href="https://graphviz.org/docs/nodes/" xlink:title="Go to gpo.zugaina.org">
<polygon fill="none" stroke="black" points="299,-426 160.75,-426 160.75,-390 299,-390 299,-426"/>
<text text-anchor="middle" x="229.88" y="-402.95" font-family="Times,serif" font-size="14.00">Go to gpo.zugaina.org</text>
</a>
</g>
</g>
<!-- emergeSearch&#45;&gt;gpoZugaina -->
<g id="edge7" class="edge">
<title>emergeSearch&#45;&gt;gpoZugaina</title>
<path fill="none" stroke="black" d="M73.7,-533.59C105.28,-508.4 163.84,-461.68 199.58,-433.17"/>
<polygon fill="black" stroke="black" points="201.51,-435.3 207.15,-426.33 197.15,-429.83 201.51,-435.3"/>
<text text-anchor="middle" x="198.12" y="-474.95" font-family="Times,serif" font-size="14.00">It isn&#39;t there?</text>
</g>
<!-- ebuildWriting -->
<g id="node7" class="node">
<title>ebuildWriting</title>
<g id="a_node7"><a xlink:href="https://devmanual.gentoo.org/ebuild-writing/index.html" xlink:title="Go to ebuild writing guide">
<polygon fill="none" stroke="black" points="254.25,-285 93.5,-285 93.5,-249 254.25,-249 254.25,-285"/>
<text text-anchor="middle" x="173.88" y="-261.95" font-family="Times,serif" font-size="14.00">Go to ebuild writing guide</text>
</a>
</g>
</g>
<!-- gpoZugaina&#45;&gt;ebuildWriting -->
<g id="edge10" class="edge">
<title>gpoZugaina&#45;&gt;ebuildWriting</title>
<path fill="none" stroke="black" d="M189.16,-389.56C174.59,-381.09 159.78,-369.36 151.62,-354 141.84,-335.55 148.63,-312.55 157.2,-294.99"/>
<polygon fill="black" stroke="black" points="160.73,-296.81 162.34,-286.34 154.55,-293.52 160.73,-296.81"/>
<text text-anchor="middle" x="223.5" y="-340.7" font-family="Times,serif" font-size="14.00">It&#39;s not there either? </text>
<text text-anchor="middle" x="223.5" y="-324.2" font-family="Times,serif" font-size="14.00"> You can write it yourself!</text>
</g>
<!-- gpoZugaina&#45;&gt;joint5 -->
<g id="edge8" class="edge">
<title>gpoZugaina&#45;&gt;joint5</title>
<path fill="none" stroke="black" d="M260.57,-389.6C295.44,-370.45 354.49,-339.91 408.38,-321 490.76,-292.09 595.3,-274.64 628.36,-269.56"/>
<polygon fill="black" stroke="black" points="628.4,-272.94 637.78,-268.01 627.37,-266.02 628.4,-272.94"/>
<text text-anchor="middle" x="483.12" y="-340.7" font-family="Times,serif" font-size="14.00">It&#39;s in an overlay you don&#39;t </text>
<text text-anchor="middle" x="483.12" y="-324.2" font-family="Times,serif" font-size="14.00"> have in your system?</text>
</g>
<!-- eselectRepo -->
<g id="node5" class="node">
<title>eselectRepo</title>
<polygon fill="none" stroke="black" points="761.25,-160.5 516.5,-160.5 516.5,-124.5 761.25,-124.5 761.25,-160.5"/>
<text text-anchor="middle" x="638.88" y="-137.45" font-family="Times,serif" font-size="14.00">eselect repository enable &lt;overlay name&gt;</text>
</g>
<!-- eselectRepoSync1 -->
<g id="node6" class="node">
<title>eselectRepoSync1</title>
<polygon fill="none" stroke="black" points="762.38,-36 515.38,-36 515.38,0 762.38,0 762.38,-36"/>
<text text-anchor="middle" x="638.88" y="-12.95" font-family="Times,serif" font-size="14.00">eselect repository sync &#45;r &lt;overlay name&gt;</text>
</g>
<!-- eselectRepo&#45;&gt;eselectRepoSync1 -->
<g id="edge9" class="edge">
<title>eselectRepo&#45;&gt;eselectRepoSync1</title>
<path fill="none" stroke="black" d="M638.88,-124.21C638.88,-104.14 638.88,-70.78 638.88,-47"/>
<polygon fill="black" stroke="black" points="642.38,-47.2 638.88,-37.2 635.38,-47.2 642.38,-47.2"/>
<text text-anchor="middle" x="740.88" y="-75.2" font-family="Times,serif" font-size="14.00">Sync the repository with your system</text>
</g>
<!-- qlist -->
<g id="node8" class="node">
<title>qlist</title>
<polygon fill="none" stroke="black" points="846.62,-570 769.12,-570 769.12,-534 846.62,-534 846.62,-570"/>
<text text-anchor="middle" x="807.88" y="-546.95" font-family="Times,serif" font-size="14.00">qlist &#45;IURv</text>
</g>
<!-- emergeDeselect -->
<g id="node9" class="node">
<title>emergeDeselect</title>
<polygon fill="none" stroke="black" points="1393.5,-570 1216.25,-570 1216.25,-534 1393.5,-534 1393.5,-570"/>
<text text-anchor="middle" x="1304.88" y="-546.95" font-family="Times,serif" font-size="14.00">emerge &#45;&#45;deselect &lt;package&gt;</text>
</g>
<!-- emergeDepclean -->
<g id="node10" class="node">
<title>emergeDepclean</title>
<polygon fill="none" stroke="black" points="1363.5,-426 1246.25,-426 1246.25,-390 1363.5,-390 1363.5,-426"/>
<text text-anchor="middle" x="1304.88" y="-402.95" font-family="Times,serif" font-size="14.00">emerge &#45;&#45;depclean</text>
</g>
<!-- emergeDeselect&#45;&gt;emergeDepclean -->
<g id="edge17" class="edge">
<title>emergeDeselect&#45;&gt;emergeDepclean</title>
<path fill="none" stroke="black" d="M1304.88,-533.59C1304.88,-509.5 1304.88,-465.75 1304.88,-437.03"/>
<polygon fill="black" stroke="black" points="1308.38,-437.11 1304.88,-427.11 1301.38,-437.11 1308.38,-437.11"/>
<text text-anchor="middle" x="1388.12" y="-483.2" font-family="Times,serif" font-size="14.00">This uninstalls the package &amp; </text>
<text text-anchor="middle" x="1388.12" y="-466.7" font-family="Times,serif" font-size="14.00"> its unneeded dependencies</text>
</g>
<!-- joint1 -->
<g id="node11" class="node">
<title>joint1</title>
</g>
<!-- joint2&#45;&gt;emergeSearch -->
<g id="edge5" class="edge">
<title>joint2&#45;&gt;emergeSearch</title>
<path fill="none" stroke="black" d="M319.72,-675C313.09,-675.17 100.63,-680.13 60.88,-639 46.38,-624 44.97,-599.95 46.71,-581.09"/>
<polygon fill="black" stroke="black" points="50.27,-581.78 48.06,-571.42 43.33,-580.9 50.27,-581.78"/>
<text text-anchor="middle" x="149.38" y="-625.7" font-family="Times,serif" font-size="14.00">Search a package in </text>
<text text-anchor="middle" x="149.38" y="-609.2" font-family="Times,serif" font-size="14.00"> overlays present in your system</text>
</g>
<!-- joint2&#45;&gt;gpoZugaina -->
<g id="edge6" class="edge">
<title>joint2&#45;&gt;gpoZugaina</title>
<path fill="none" stroke="black" d="M319.86,-674.91C319.18,-671.19 297.11,-551.37 259.88,-462 256.13,-453.02 251.21,-443.65 246.43,-435.33"/>
<polygon fill="black" stroke="black" points="249.08,-433.94 240.97,-427.13 243.06,-437.52 249.08,-433.94"/>
<text text-anchor="middle" x="356.38" y="-555.2" font-family="Times,serif" font-size="14.00">Search the package in </text>
<text text-anchor="middle" x="356.38" y="-538.7" font-family="Times,serif" font-size="14.00"> &quot;all&quot; the overlays</text>
</g>
<!-- joint3&#45;&gt;emergeAsk -->
<g id="edge2" class="edge">
<title>joint3&#45;&gt;emergeAsk</title>
<path fill="none" stroke="black" d="M615.88,-674.86C616.02,-670.42 619.37,-562.07 621,-509.33"/>
<polygon fill="black" stroke="black" points="624.53,-509.49 621.34,-499.39 617.53,-509.27 624.53,-509.49"/>
<text text-anchor="middle" x="664.25" y="-617.45" font-family="Times,serif" font-size="14.00">install a package</text>
</g>
<!-- joint4&#45;&gt;qlist -->
<g id="edge12" class="edge">
<title>joint4&#45;&gt;qlist</title>
<path fill="none" stroke="black" d="M807.88,-674.91C807.88,-672.39 807.88,-616.31 807.88,-581.1"/>
<polygon fill="black" stroke="black" points="811.38,-581.5 807.88,-571.5 804.38,-581.5 811.38,-581.5"/>
</g>
<!-- joint5&#45;&gt;eselectRepo -->
<g id="edge14" class="edge">
<title>joint5&#45;&gt;eselectRepo</title>
<path fill="none" stroke="black" d="M638.88,-265.91C638.88,-263.37 638.88,-206.78 638.88,-171.44"/>
<polygon fill="black" stroke="black" points="642.38,-171.81 638.88,-161.81 635.38,-171.81 642.38,-171.81"/>
<text text-anchor="middle" x="679" y="-199.7" font-family="Times,serif" font-size="14.00">add an overlay</text>
</g>
<!-- joint6&#45;&gt;emergeDeselect -->
<g id="edge16" class="edge">
<title>joint6&#45;&gt;emergeDeselect</title>
<path fill="none" stroke="black" d="M1248.92,-674.91C1250.09,-672.36 1276.26,-615.33 1292.39,-580.19"/>
<polygon fill="black" stroke="black" points="1295.85,-582.04 1296.84,-571.5 1289.49,-579.12 1295.85,-582.04"/>
<text text-anchor="middle" x="1406.12" y="-617.45" font-family="Times,serif" font-size="14.00">This removes the package from the world file</text>
</g>
<!-- joint7 -->
<g id="node17" class="node">
<title>joint7</title>
</g>
<!-- joint8 -->
<g id="node18" class="node">
<title>joint8</title>
</g>
<!-- joint9 -->
<g id="node19" class="node">
<title>joint9</title>
</g>
<!-- joint10 -->
<g id="node20" class="node">
<title>joint10</title>
</g>
<!-- joint11 -->
<g id="node21" class="node">
<title>joint11</title>
</g>
</g>
</svg>
