<?xml version="1.0" encoding="UTF-8" standalone="no"?>
<!DOCTYPE svg PUBLIC "-//W3C//DTD SVG 1.1//EN"
 "http://www.w3.org/Graphics/SVG/1.1/DTD/svg11.dtd">
<!-- Generated by graphviz version 8.0.5 (20230430.1635)
 -->
<!-- Title: cheat_sheet Pages: 1 -->
<svg width="1472pt" height="965pt"
 viewBox="0.00 0.00 1471.88 965.00" xmlns="http://www.w3.org/2000/svg" xmlns:xlink="http://www.w3.org/1999/xlink">
<g id="graph0" class="graph" transform="scale(1 1) rotate(0) translate(4 961)">
<title>cheat_sheet</title>
<polygon fill="white" stroke="none" points="-4,4 -4,-961 1467.88,-961 1467.88,4 -4,4"/>
<!-- start -->
<g id="node1" class="node">
<title>start</title>
<polygon fill="none" stroke="black" points="744.38,-957 690.38,-957 690.38,-921 744.38,-921 744.38,-957"/>
<text text-anchor="middle" x="717.38" y="-933.95" font-family="Times,serif" font-size="14.00">Start</text>
</g>
<!-- genlop -->
<g id="node12" class="node">
<title>genlop</title>
<polygon fill="none" stroke="black" points="154.12,-832.5 82.62,-832.5 82.62,-796.5 154.12,-796.5 154.12,-832.5"/>
<text text-anchor="middle" x="118.38" y="-809.45" font-family="Times,serif" font-size="14.00" fill="#0000cd">genlop &#45;lu</text>
</g>
<!-- start&#45;&gt;genlop -->
<g id="edge20" class="edge">
<title>start&#45;&gt;genlop</title>
<path fill="none" stroke="black" d="M690.14,-938.65C616.29,-939.64 406.84,-937.25 243.38,-885 210.18,-874.39 175.8,-854.52 151.53,-838.73"/>
<polygon fill="black" stroke="black" points="153.69,-835.3 143.42,-832.7 149.82,-841.14 153.69,-835.3"/>
<text text-anchor="middle" x="363.38" y="-871.7" font-family="Times,serif" font-size="14.00">Check installation and uninstallation history</text>
</g>
<!-- joint2 -->
<g id="node14" class="node">
<title>joint2</title>
</g>
<!-- start&#45;&gt;joint2 -->
<g id="edge4" class="edge">
<title>start&#45;&gt;joint2</title>
<path fill="none" stroke="black" d="M690.09,-928.99C605.09,-900.92 350.4,-816.83 346.42,-815.52"/>
<text text-anchor="middle" x="580.25" y="-871.7" font-family="Times,serif" font-size="14.00">searching</text>
</g>
<!-- joint3 -->
<g id="node15" class="node">
<title>joint3</title>
</g>
<!-- start&#45;&gt;joint3 -->
<g id="edge1" class="edge">
<title>start&#45;&gt;joint3</title>
<path fill="none" stroke="black" d="M702.1,-920.97C693.41,-910.87 682.6,-897.62 674.12,-885 655.15,-856.72 637.51,-818.01 636.43,-815.62"/>
<text text-anchor="middle" x="699.5" y="-871.7" font-family="Times,serif" font-size="14.00">installing</text>
</g>
<!-- joint4 -->
<g id="node16" class="node">
<title>joint4</title>
</g>
<!-- start&#45;&gt;joint4 -->
<g id="edge13" class="edge">
<title>start&#45;&gt;joint4</title>
<path fill="none" stroke="black" d="M728.1,-920.71C748.72,-887.47 792,-817.72 793.34,-815.55"/>
<text text-anchor="middle" x="777.25" y="-871.7" font-family="Times,serif" font-size="14.00">listing</text>
</g>
<!-- joint5 -->
<g id="node17" class="node">
<title>joint5</title>
</g>
<!-- start&#45;&gt;joint5 -->
<g id="edge15" class="edge">
<title>start&#45;&gt;joint5</title>
<path fill="none" stroke="black" d="M744.74,-931.54C812.44,-914.75 982.38,-867.45 982.38,-815.5 982.38,-815.5 982.38,-815.5 982.38,-407 982.38,-305.89 552.18,-268.58 545.45,-268.01"/>
<text text-anchor="middle" x="1005.25" y="-597.95" font-family="Times,serif" font-size="14.00">overlays</text>
</g>
<!-- joint6 -->
<g id="node18" class="node">
<title>joint6</title>
</g>
<!-- start&#45;&gt;joint6 -->
<g id="edge17" class="edge">
<title>start&#45;&gt;joint6</title>
<path fill="none" stroke="black" d="M744.65,-931.78C760.32,-928.33 780.4,-924.12 798.38,-921 913.75,-900.96 948.5,-922.66 1059.38,-885 1117.54,-865.24 1179.41,-817.04 1181.33,-815.54"/>
<text text-anchor="middle" x="1127.25" y="-871.7" font-family="Times,serif" font-size="14.00">uninstalling</text>
</g>
<!-- emergeAsk -->
<g id="node2" class="node">
<title>emergeAsk</title>
<polygon fill="none" stroke="black" points="633.75,-691.5 563,-691.5 563,-655.5 633.75,-655.5 633.75,-691.5"/>
<text text-anchor="middle" x="598.38" y="-668.45" font-family="Times,serif" font-size="14.00">emerge &#45;a</text>
</g>
<!-- guru -->
<g id="node11" class="node">
<title>guru</title>
<g id="a_node11"><a xlink:href="https://gitweb.gentoo.org/repo/proj/guru.git/tree/" xlink:title="Check the guru overlay">
<polygon fill="none" stroke="black" points="551.12,-550.5 407.62,-550.5 407.62,-514.5 551.12,-514.5 551.12,-550.5"/>
<text text-anchor="middle" x="479.38" y="-527.45" font-family="Times,serif" font-size="14.00">Check the guru overlay</text>
</a>
</g>
</g>
<!-- emergeAsk&#45;&gt;guru -->
<g id="edge3" class="edge">
<title>emergeAsk&#45;&gt;guru</title>
<path fill="none" stroke="black" d="M583.54,-655.18C562.77,-630.91 524.86,-586.63 500.95,-558.71"/>
<polygon fill="black" stroke="black" points="503.18,-556.93 494.02,-551.61 497.86,-561.48 503.18,-556.93"/>
<text text-anchor="middle" x="664.38" y="-597.95" font-family="Times,serif" font-size="14.00">Are there no ebuilds to satisfy a package?</text>
</g>
<!-- emergeSearch -->
<g id="node3" class="node">
<title>emergeSearch</title>
<polygon fill="none" stroke="black" points="450.25,-691.5 346.5,-691.5 346.5,-655.5 450.25,-655.5 450.25,-691.5"/>
<text text-anchor="middle" x="398.38" y="-668.45" font-family="Times,serif" font-size="14.00">emerge &#45;&#45;search</text>
</g>
<!-- emergeSearch&#45;&gt;guru -->
<g id="edge8" class="edge">
<title>emergeSearch&#45;&gt;guru</title>
<path fill="none" stroke="black" d="M392.01,-655.12C386.45,-636.82 380.96,-607.78 392.88,-586.5 399.87,-574.01 411.14,-564.11 423.27,-556.41"/>
<polygon fill="black" stroke="black" points="424.78,-559 431.66,-550.95 421.26,-552.95 424.78,-559"/>
<text text-anchor="middle" x="428.62" y="-597.95" font-family="Times,serif" font-size="14.00">It isn&#39;t there?</text>
</g>
<!-- gpoZugaina -->
<g id="node4" class="node">
<title>gpoZugaina</title>
<g id="a_node4"><a xlink:href="https://graphviz.org/docs/nodes/" xlink:title="Go to gpo.zugaina.org">
<polygon fill="none" stroke="black" points="275.5,-426 137.25,-426 137.25,-390 275.5,-390 275.5,-426"/>
<text text-anchor="middle" x="206.38" y="-402.95" font-family="Times,serif" font-size="14.00">Go to gpo.zugaina.org</text>
</a>
</g>
</g>
<!-- ebuildWriting -->
<g id="node7" class="node">
<title>ebuildWriting</title>
<g id="a_node7"><a xlink:href="https://devmanual.gentoo.org/ebuild-writing/index.html" xlink:title="Go to ebuild writing guide">
<polygon fill="none" stroke="black" points="160.75,-285 0,-285 0,-249 160.75,-249 160.75,-285"/>
<text text-anchor="middle" x="80.38" y="-261.95" font-family="Times,serif" font-size="14.00">Go to ebuild writing guide</text>
</a>
</g>
</g>
<!-- gpoZugaina&#45;&gt;ebuildWriting -->
<g id="edge12" class="edge">
<title>gpoZugaina&#45;&gt;ebuildWriting</title>
<path fill="none" stroke="black" d="M137.09,-399.77C107.71,-392.89 76.15,-379.59 58.12,-354 45.83,-336.55 53.33,-312.84 62.82,-294.73"/>
<polygon fill="black" stroke="black" points="66.27,-296.75 68.18,-286.33 60.18,-293.28 66.27,-296.75"/>
<text text-anchor="middle" x="130" y="-340.7" font-family="Times,serif" font-size="14.00">It&#39;s not there either? </text>
<text text-anchor="middle" x="130" y="-324.2" font-family="Times,serif" font-size="14.00"> You can write it yourself!</text>
</g>
<!-- gpoZugaina&#45;&gt;joint5 -->
<g id="edge10" class="edge">
<title>gpoZugaina&#45;&gt;joint5</title>
<path fill="none" stroke="black" d="M223.12,-389.7C243.13,-370.07 278.48,-338.5 314.88,-321 408.13,-276.17 541.14,-268.24 545.28,-268.01"/>
<text text-anchor="middle" x="389.62" y="-340.7" font-family="Times,serif" font-size="14.00">It&#39;s in an overlay you don&#39;t </text>
<text text-anchor="middle" x="389.62" y="-324.2" font-family="Times,serif" font-size="14.00"> have in your system?</text>
</g>
<!-- eselectRepo -->
<g id="node5" class="node">
<title>eselectRepo</title>
<polygon fill="none" stroke="black" points="667.75,-160.5 423,-160.5 423,-124.5 667.75,-124.5 667.75,-160.5"/>
<text text-anchor="middle" x="545.38" y="-137.45" font-family="Times,serif" font-size="14.00">eselect repository enable &lt;overlay name&gt;</text>
</g>
<!-- eselectRepoSync1 -->
<g id="node6" class="node">
<title>eselectRepoSync1</title>
<polygon fill="none" stroke="black" points="668.88,-36 421.88,-36 421.88,0 668.88,0 668.88,-36"/>
<text text-anchor="middle" x="545.38" y="-12.95" font-family="Times,serif" font-size="14.00">eselect repository sync &#45;r &lt;overlay name&gt;</text>
</g>
<!-- eselectRepo&#45;&gt;eselectRepoSync1 -->
<g id="edge11" class="edge">
<title>eselectRepo&#45;&gt;eselectRepoSync1</title>
<path fill="none" stroke="black" d="M545.38,-124.21C545.38,-104.14 545.38,-70.78 545.38,-47"/>
<polygon fill="black" stroke="black" points="548.88,-47.2 545.38,-37.2 541.88,-47.2 548.88,-47.2"/>
<text text-anchor="middle" x="647.38" y="-75.2" font-family="Times,serif" font-size="14.00">Sync the repository with your system</text>
</g>
<!-- qlist -->
<g id="node8" class="node">
<title>qlist</title>
<polygon fill="none" stroke="black" points="819.12,-691.5 741.62,-691.5 741.62,-655.5 819.12,-655.5 819.12,-691.5"/>
<text text-anchor="middle" x="780.38" y="-668.45" font-family="Times,serif" font-size="14.00" fill="indigo">qlist &#45;IURv</text>
</g>
<!-- emergeDeselect -->
<g id="node9" class="node">
<title>emergeDeselect</title>
<polygon fill="none" stroke="black" points="1323,-691.5 1145.75,-691.5 1145.75,-655.5 1323,-655.5 1323,-691.5"/>
<text text-anchor="middle" x="1234.38" y="-668.45" font-family="Times,serif" font-size="14.00">emerge &#45;&#45;deselect &lt;package&gt;</text>
</g>
<!-- emergeDepclean -->
<g id="node10" class="node">
<title>emergeDepclean</title>
<polygon fill="none" stroke="black" points="1293,-550.5 1175.75,-550.5 1175.75,-514.5 1293,-514.5 1293,-550.5"/>
<text text-anchor="middle" x="1234.38" y="-527.45" font-family="Times,serif" font-size="14.00">emerge &#45;&#45;depclean</text>
</g>
<!-- emergeDeselect&#45;&gt;emergeDepclean -->
<g id="edge19" class="edge">
<title>emergeDeselect&#45;&gt;emergeDepclean</title>
<path fill="none" stroke="black" d="M1234.38,-655.18C1234.38,-631.64 1234.38,-589.28 1234.38,-561.28"/>
<polygon fill="black" stroke="black" points="1237.88,-561.61 1234.38,-551.61 1230.88,-561.61 1237.88,-561.61"/>
<text text-anchor="middle" x="1317.62" y="-606.2" font-family="Times,serif" font-size="14.00">This uninstalls the package &amp; </text>
<text text-anchor="middle" x="1317.62" y="-589.7" font-family="Times,serif" font-size="14.00"> its unneeded dependencies</text>
</g>
<!-- guru&#45;&gt;gpoZugaina -->
<g id="edge9" class="edge">
<title>guru&#45;&gt;gpoZugaina</title>
<path fill="none" stroke="black" d="M439.25,-514.11C415.66,-503.85 385.27,-490.54 358.38,-478.5 323.28,-462.79 283.79,-444.72 253.85,-430.95"/>
<polygon fill="black" stroke="black" points="255.64,-427.45 245.09,-426.45 252.71,-433.81 255.64,-427.45"/>
<text text-anchor="middle" x="410.88" y="-465.2" font-family="Times,serif" font-size="14.00">It isn&#39;t there either?</text>
</g>
<!-- guru&#45;&gt;joint5 -->
<g id="edge7" class="edge">
<title>guru&#45;&gt;joint5</title>
<path fill="none" stroke="black" d="M483.71,-514.21C498.16,-456.51 543.91,-273.83 545.34,-268.14"/>
<text text-anchor="middle" x="638.75" y="-402.95" font-family="Times,serif" font-size="14.00">You don&#39;t have guru enabled in your system?</text>
</g>
<!-- joint1 -->
<g id="node13" class="node">
<title>joint1</title>
</g>
<!-- joint2&#45;&gt;emergeSearch -->
<g id="edge5" class="edge">
<title>joint2&#45;&gt;emergeSearch</title>
<path fill="none" stroke="black" d="M346.41,-813.4C347.53,-810.41 373.27,-741.59 388.1,-701.97"/>
<polygon fill="black" stroke="black" points="391.65,-703.47 391.87,-692.88 385.09,-701.02 391.65,-703.47"/>
<text text-anchor="middle" x="465.88" y="-747.2" font-family="Times,serif" font-size="14.00">Search a package in </text>
<text text-anchor="middle" x="465.88" y="-730.7" font-family="Times,serif" font-size="14.00"> overlays present in your system</text>
</g>
<!-- joint2&#45;&gt;gpoZugaina -->
<g id="edge6" class="edge">
<title>joint2&#45;&gt;gpoZugaina</title>
<path fill="none" stroke="black" d="M346.32,-813.43C343.95,-810.37 267.87,-711.85 236.38,-619.5 214.96,-556.72 208.83,-478.37 207.08,-437.23"/>
<polygon fill="black" stroke="black" points="210.54,-437.29 206.68,-427.42 203.55,-437.54 210.54,-437.29"/>
<text text-anchor="middle" x="297.88" y="-606.2" font-family="Times,serif" font-size="14.00">Search the package in </text>
<text text-anchor="middle" x="297.88" y="-589.7" font-family="Times,serif" font-size="14.00"> &quot;all&quot; the overlays</text>
</g>
<!-- joint3&#45;&gt;emergeAsk -->
<g id="edge2" class="edge">
<title>joint3&#45;&gt;emergeAsk</title>
<path fill="none" stroke="black" d="M636.35,-813.4C635.53,-810.42 616.88,-742.18 606.02,-702.48"/>
<polygon fill="black" stroke="black" points="609.14,-701.6 603.13,-692.88 602.39,-703.45 609.14,-701.6"/>
<text text-anchor="middle" x="666.75" y="-738.95" font-family="Times,serif" font-size="14.00">install a package</text>
</g>
<!-- joint4&#45;&gt;qlist -->
<g id="edge14" class="edge">
<title>joint4&#45;&gt;qlist</title>
<path fill="none" stroke="black" d="M793.37,-813.4C793.09,-810.43 786.73,-742.47 783.02,-702.73"/>
<polygon fill="black" stroke="black" points="786.42,-702.51 782,-692.88 779.45,-703.16 786.42,-702.51"/>
</g>
<!-- joint5&#45;&gt;eselectRepo -->
<g id="edge16" class="edge">
<title>joint5&#45;&gt;eselectRepo</title>
<path fill="none" stroke="black" d="M545.38,-265.91C545.38,-263.37 545.38,-206.78 545.38,-171.44"/>
<polygon fill="black" stroke="black" points="548.88,-171.81 545.38,-161.81 541.88,-171.81 548.88,-171.81"/>
<text text-anchor="middle" x="585.5" y="-199.7" font-family="Times,serif" font-size="14.00">add an overlay</text>
</g>
<!-- joint6&#45;&gt;emergeDeselect -->
<g id="edge18" class="edge">
<title>joint6&#45;&gt;emergeDeselect</title>
<path fill="none" stroke="black" d="M1181.41,-813.4C1182.55,-810.41 1208.79,-741.59 1223.9,-701.97"/>
<polygon fill="black" stroke="black" points="1227.46,-703.47 1227.75,-692.88 1220.91,-700.98 1227.46,-703.47"/>
<text text-anchor="middle" x="1338.62" y="-738.95" font-family="Times,serif" font-size="14.00">This removes the package from the world file</text>
</g>
<!-- joint7 -->
<g id="node19" class="node">
<title>joint7</title>
</g>
<!-- joint8 -->
<g id="node20" class="node">
<title>joint8</title>
</g>
<!-- joint9 -->
<g id="node21" class="node">
<title>joint9</title>
</g>
<!-- joint10 -->
<g id="node22" class="node">
<title>joint10</title>
</g>
<!-- joint11 -->
<g id="node23" class="node">
<title>joint11</title>
</g>
</g>
</svg>
