<?xml version="1.0" encoding="UTF-8" standalone="no"?>
<!DOCTYPE svg PUBLIC "-//W3C//DTD SVG 1.1//EN"
 "http://www.w3.org/Graphics/SVG/1.1/DTD/svg11.dtd">
<!-- Generated by graphviz version 8.0.5 (20230430.1635)
 -->
<!-- Title: cheat_sheet Pages: 1 -->
<svg width="1887pt" height="965pt"
 viewBox="0.00 0.00 1886.95 965.00" xmlns="http://www.w3.org/2000/svg" xmlns:xlink="http://www.w3.org/1999/xlink">
<g id="graph0" class="graph" transform="scale(1 1) rotate(0) translate(4 961)">
<title>cheat_sheet</title>
<polygon fill="white" stroke="none" points="-4,4 -4,-961 1882.95,-961 1882.95,4 -4,4"/>
<!-- start -->
<g id="node1" class="node">
<title>start</title>
<polygon fill="none" stroke="black" points="1076.7,-957 1022.7,-957 1022.7,-921 1076.7,-921 1076.7,-957"/>
<text text-anchor="middle" x="1049.7" y="-933.95" font-family="Times,serif" font-size="14.00">Start</text>
</g>
<!-- emaintSyncAll -->
<g id="node8" class="node">
<title>emaintSyncAll</title>
<polygon fill="none" stroke="black" points="628.7,-832.5 510.7,-832.5 510.7,-796.5 628.7,-796.5 628.7,-832.5"/>
<text text-anchor="middle" x="569.7" y="-809.45" font-family="Times,serif" font-size="14.00">emaint sync &#45;&#45;auto</text>
</g>
<!-- start&#45;&gt;emaintSyncAll -->
<g id="edge23" class="edge">
<title>start&#45;&gt;emaintSyncAll</title>
<path fill="none" stroke="black" d="M1022.52,-931.06C949.49,-912.43 747.28,-860.82 639.48,-833.31"/>
<polygon fill="black" stroke="black" points="640.59,-829.72 630.03,-830.64 638.85,-836.51 640.59,-829.72"/>
<text text-anchor="middle" x="856.7" y="-871.7" font-family="Times,serif" font-size="14.00">update</text>
</g>
<!-- joint2 -->
<g id="node16" class="node">
<title>joint2</title>
</g>
<!-- start&#45;&gt;joint2 -->
<g id="edge5" class="edge">
<title>start&#45;&gt;joint2</title>
<path fill="none" stroke="black" d="M1022.29,-934.13C875.9,-913.47 192.49,-817.02 181.82,-815.52"/>
<text text-anchor="middle" x="693.57" y="-871.7" font-family="Times,serif" font-size="14.00">searching</text>
</g>
<!-- joint3 -->
<g id="node17" class="node">
<title>joint3</title>
</g>
<!-- start&#45;&gt;joint3 -->
<g id="edge1" class="edge">
<title>start&#45;&gt;joint3</title>
<path fill="none" stroke="black" d="M1022.31,-933.36C992.98,-927.08 946.72,-913.26 917.45,-885 893.9,-862.28 887.12,-818.36 886.72,-815.63"/>
<text text-anchor="middle" x="942.82" y="-871.7" font-family="Times,serif" font-size="14.00">installing</text>
</g>
<!-- joint4 -->
<g id="node18" class="node">
<title>joint4</title>
</g>
<!-- start&#45;&gt;joint4 -->
<g id="edge14" class="edge">
<title>start&#45;&gt;joint4</title>
<path fill="none" stroke="black" d="M1076.23,-920.71C1127.25,-887.47 1234.29,-817.72 1237.62,-815.55"/>
<text text-anchor="middle" x="1171.57" y="-871.7" font-family="Times,serif" font-size="14.00">listing</text>
</g>
<!-- joint5 -->
<g id="node19" class="node">
<title>joint5</title>
</g>
<!-- start&#45;&gt;joint5 -->
<g id="edge16" class="edge">
<title>start&#45;&gt;joint5</title>
<path fill="none" stroke="black" d="M1048.99,-920.62C1047.03,-871.13 1041.7,-725.23 1041.7,-604 1041.7,-604 1041.7,-604 1041.7,-407 1041.7,-299.57 581.97,-268.48 574.78,-268.01"/>
<text text-anchor="middle" x="1065.57" y="-597.95" font-family="Times,serif" font-size="14.00">overlays</text>
</g>
<!-- joint6 -->
<g id="node20" class="node">
<title>joint6</title>
</g>
<!-- start&#45;&gt;joint6 -->
<g id="edge18" class="edge">
<title>start&#45;&gt;joint6</title>
<path fill="none" stroke="black" d="M1077.14,-929.64C1110.15,-919.49 1167.2,-901.65 1215.7,-885 1299.02,-856.39 1401.44,-816.76 1404.62,-815.53"/>
<text text-anchor="middle" x="1293.57" y="-871.7" font-family="Times,serif" font-size="14.00">uninstalling</text>
</g>
<!-- joint7 -->
<g id="node21" class="node">
<title>joint7</title>
</g>
<!-- start&#45;&gt;joint7 -->
<g id="edge21" class="edge">
<title>start&#45;&gt;joint7</title>
<path fill="none" stroke="black" d="M1077.01,-931.94C1092.68,-928.55 1112.76,-924.34 1130.7,-921 1228.97,-902.73 1254.22,-902.13 1352.7,-885 1516.66,-856.47 1720.23,-816.76 1726.55,-815.53"/>
<text text-anchor="middle" x="1483.32" y="-871.7" font-family="Times,serif" font-size="14.00">miscellaneous</text>
</g>
<!-- emergeAsk -->
<g id="node2" class="node">
<title>emergeAsk</title>
<polygon fill="none" stroke="black" points="856.07,-691.5 785.32,-691.5 785.32,-655.5 856.07,-655.5 856.07,-691.5"/>
<text text-anchor="middle" x="820.7" y="-668.45" font-family="Times,serif" font-size="14.00">emerge &#45;a</text>
</g>
<!-- guru -->
<g id="node13" class="node">
<title>guru</title>
<g id="a_node13"><a xlink:href="https://gitweb.gentoo.org/repo/proj/guru.git/tree/" xlink:title="Check the guru overlay">
<ellipse fill="none" stroke="black" cx="545.7" cy="-532.5" rx="97.93" ry="18"/>
<text text-anchor="middle" x="545.7" y="-527.45" font-family="Times,serif" font-size="14.00">Check the guru overlay</text>
</a>
</g>
</g>
<!-- emergeAsk&#45;&gt;guru -->
<g id="edge4" class="edge">
<title>emergeAsk&#45;&gt;guru</title>
<path fill="none" stroke="black" d="M785.08,-661.59C755.8,-652.07 713.61,-637.04 678.7,-619.5 642.21,-601.17 603.31,-575.17 577.06,-556.56"/>
<polygon fill="black" stroke="black" points="579.5,-553.29 569.33,-550.32 575.43,-558.98 579.5,-553.29"/>
<text text-anchor="middle" x="792.7" y="-597.95" font-family="Times,serif" font-size="14.00">Are there no ebuilds to satisfy a package?</text>
</g>
<!-- emergeUpdate -->
<g id="node3" class="node">
<title>emergeUpdate</title>
<polygon fill="none" stroke="black" points="632.57,-691.5 480.82,-691.5 480.82,-655.5 632.57,-655.5 632.57,-691.5"/>
<text text-anchor="middle" x="556.7" y="-668.45" font-family="Times,serif" font-size="14.00">emerge &#45;avuDN @world</text>
</g>
<!-- emergeSearch -->
<g id="node4" class="node">
<title>emergeSearch</title>
<polygon fill="none" stroke="black" points="311.57,-691.5 207.82,-691.5 207.82,-655.5 311.57,-655.5 311.57,-691.5"/>
<text text-anchor="middle" x="259.7" y="-668.45" font-family="Times,serif" font-size="14.00">emerge &#45;&#45;search</text>
</g>
<!-- emergeSearch&#45;&gt;guru -->
<g id="edge9" class="edge">
<title>emergeSearch&#45;&gt;guru</title>
<path fill="none" stroke="black" d="M295.63,-655.04C348.28,-629.45 446.23,-581.84 502.65,-554.42"/>
<polygon fill="black" stroke="black" points="503.89,-557.23 511.35,-549.71 500.83,-550.93 503.89,-557.23"/>
<text text-anchor="middle" x="463.95" y="-597.95" font-family="Times,serif" font-size="14.00">It isn&#39;t there?</text>
</g>
<!-- gpoZugaina -->
<g id="node5" class="node">
<title>gpoZugaina</title>
<g id="a_node5"><a xlink:href="https://graphviz.org/docs/nodes/" xlink:title="Go to gpo.zugaina.org">
<ellipse fill="none" stroke="black" cx="187.7" cy="-408" rx="94.34" ry="18"/>
<text text-anchor="middle" x="187.7" y="-402.95" font-family="Times,serif" font-size="14.00">Go to gpo.zugaina.org</text>
</a>
</g>
</g>
<!-- ebuildWriting -->
<g id="node9" class="node">
<title>ebuildWriting</title>
<g id="a_node9"><a xlink:href="https://devmanual.gentoo.org/ebuild-writing/index.html" xlink:title="Go to ebuild writing guide">
<ellipse fill="none" stroke="black" cx="109.7" cy="-267" rx="109.7" ry="18"/>
<text text-anchor="middle" x="109.7" y="-261.95" font-family="Times,serif" font-size="14.00">Go to ebuild writing guide</text>
</a>
</g>
</g>
<!-- gpoZugaina&#45;&gt;ebuildWriting -->
<g id="edge13" class="edge">
<title>gpoZugaina&#45;&gt;ebuildWriting</title>
<path fill="none" stroke="black" d="M136.66,-392.49C117.8,-384.38 98.37,-372.13 87.45,-354 76.5,-335.83 83.74,-312.36 92.78,-294.53"/>
<polygon fill="black" stroke="black" points="96.12,-296.72 97.89,-286.28 89.99,-293.34 96.12,-296.72"/>
<text text-anchor="middle" x="159.32" y="-340.7" font-family="Times,serif" font-size="14.00">It&#39;s not there either? </text>
<text text-anchor="middle" x="159.32" y="-324.2" font-family="Times,serif" font-size="14.00"> You can write it yourself!</text>
</g>
<!-- gpoZugaina&#45;&gt;joint5 -->
<g id="edge11" class="edge">
<title>gpoZugaina&#45;&gt;joint5</title>
<path fill="none" stroke="black" d="M212.94,-390.25C243.03,-370.98 295.39,-339.61 344.2,-321 440.88,-284.14 570.57,-268.49 574.6,-268.01"/>
<text text-anchor="middle" x="418.95" y="-340.7" font-family="Times,serif" font-size="14.00">It&#39;s in an overlay you don&#39;t </text>
<text text-anchor="middle" x="418.95" y="-324.2" font-family="Times,serif" font-size="14.00"> have in your system?</text>
</g>
<!-- eselectRepo -->
<g id="node6" class="node">
<title>eselectRepo</title>
<polygon fill="none" stroke="black" points="697.07,-160.5 452.32,-160.5 452.32,-124.5 697.07,-124.5 697.07,-160.5"/>
<text text-anchor="middle" x="574.7" y="-137.45" font-family="Times,serif" font-size="14.00">eselect repository enable &lt;overlay name&gt;</text>
</g>
<!-- emaintSync -->
<g id="node7" class="node">
<title>emaintSync</title>
<polygon fill="none" stroke="black" points="669.32,-36 480.07,-36 480.07,0 669.32,0 669.32,-36"/>
<text text-anchor="middle" x="574.7" y="-12.95" font-family="Times,serif" font-size="14.00">emaint sync &#45;r &lt;overlay name&gt;</text>
</g>
<!-- eselectRepo&#45;&gt;emaintSync -->
<g id="edge12" class="edge">
<title>eselectRepo&#45;&gt;emaintSync</title>
<path fill="none" stroke="black" d="M574.7,-124.21C574.7,-104.14 574.7,-70.78 574.7,-47"/>
<polygon fill="black" stroke="black" points="578.2,-47.2 574.7,-37.2 571.2,-47.2 578.2,-47.2"/>
<text text-anchor="middle" x="676.7" y="-75.2" font-family="Times,serif" font-size="14.00">Sync the repository with your system</text>
</g>
<!-- emaintSyncAll&#45;&gt;emergeUpdate -->
<g id="edge24" class="edge">
<title>emaintSyncAll&#45;&gt;emergeUpdate</title>
<path fill="none" stroke="black" d="M519.12,-796.22C502.98,-788.04 486.92,-776.46 477.7,-760.5 470.36,-747.8 470.8,-740.44 477.7,-727.5 484.2,-715.31 494.88,-705.43 506.33,-697.65"/>
<polygon fill="black" stroke="black" points="507.97,-700.12 514.6,-691.85 504.26,-694.18 507.97,-700.12"/>
</g>
<!-- qlist -->
<g id="node10" class="node">
<title>qlist</title>
<polygon fill="none" stroke="black" points="1282.45,-691.5 1204.95,-691.5 1204.95,-655.5 1282.45,-655.5 1282.45,-691.5"/>
<text text-anchor="middle" x="1243.7" y="-668.45" font-family="Times,serif" font-size="14.00" fill="indigo">qlist &#45;IURv</text>
</g>
<!-- emergeDeselect -->
<g id="node11" class="node">
<title>emergeDeselect</title>
<polygon fill="none" stroke="black" points="1567.32,-691.5 1390.07,-691.5 1390.07,-655.5 1567.32,-655.5 1567.32,-691.5"/>
<text text-anchor="middle" x="1478.7" y="-668.45" font-family="Times,serif" font-size="14.00">emerge &#45;&#45;deselect &lt;package&gt;</text>
</g>
<!-- emergeDepclean -->
<g id="node12" class="node">
<title>emergeDepclean</title>
<polygon fill="none" stroke="black" points="1537.32,-550.5 1420.07,-550.5 1420.07,-514.5 1537.32,-514.5 1537.32,-550.5"/>
<text text-anchor="middle" x="1478.7" y="-527.45" font-family="Times,serif" font-size="14.00">emerge &#45;&#45;depclean</text>
</g>
<!-- emergeDeselect&#45;&gt;emergeDepclean -->
<g id="edge20" class="edge">
<title>emergeDeselect&#45;&gt;emergeDepclean</title>
<path fill="none" stroke="black" d="M1478.7,-655.18C1478.7,-631.64 1478.7,-589.28 1478.7,-561.28"/>
<polygon fill="black" stroke="black" points="1482.2,-561.61 1478.7,-551.61 1475.2,-561.61 1482.2,-561.61"/>
<text text-anchor="middle" x="1561.95" y="-606.2" font-family="Times,serif" font-size="14.00">This uninstalls the package &amp; </text>
<text text-anchor="middle" x="1561.95" y="-589.7" font-family="Times,serif" font-size="14.00"> its unneeded dependencies</text>
</g>
<!-- guru&#45;&gt;gpoZugaina -->
<g id="edge10" class="edge">
<title>guru&#45;&gt;gpoZugaina</title>
<path fill="none" stroke="black" d="M499.68,-516.21C468.13,-505.69 425.35,-491.36 387.7,-478.5 338.2,-461.6 281.94,-442.02 241.73,-427.95"/>
<polygon fill="black" stroke="black" points="242.94,-424.32 232.35,-424.32 240.63,-430.93 242.94,-424.32"/>
<text text-anchor="middle" x="440.2" y="-465.2" font-family="Times,serif" font-size="14.00">It isn&#39;t there either?</text>
</g>
<!-- guru&#45;&gt;joint5 -->
<g id="edge8" class="edge">
<title>guru&#45;&gt;joint5</title>
<path fill="none" stroke="black" d="M547.6,-514.21C553.95,-456.51 574.06,-273.83 574.68,-268.14"/>
<text text-anchor="middle" x="685.07" y="-402.95" font-family="Times,serif" font-size="14.00">You don&#39;t have guru enabled in your system?</text>
</g>
<!-- genlop -->
<g id="node14" class="node">
<title>genlop</title>
<polygon fill="none" stroke="black" points="1809.45,-691.5 1737.95,-691.5 1737.95,-655.5 1809.45,-655.5 1809.45,-691.5"/>
<text text-anchor="middle" x="1773.7" y="-668.45" font-family="Times,serif" font-size="14.00" fill="#0000cd">genlop &#45;lu</text>
</g>
<!-- joint1 -->
<g id="node15" class="node">
<title>joint1</title>
</g>
<!-- joint2&#45;&gt;emergeSearch -->
<g id="edge6" class="edge">
<title>joint2&#45;&gt;emergeSearch</title>
<path fill="none" stroke="black" d="M181.75,-813.4C183.44,-810.4 222.38,-741.01 244.57,-701.46"/>
<polygon fill="black" stroke="black" points="248.1,-703.31 249.94,-692.88 242,-699.89 248.1,-703.31"/>
<text text-anchor="middle" x="316.2" y="-747.2" font-family="Times,serif" font-size="14.00">Search a package in </text>
<text text-anchor="middle" x="316.2" y="-730.7" font-family="Times,serif" font-size="14.00"> overlays present in your system</text>
</g>
<!-- joint2&#45;&gt;gpoZugaina -->
<g id="edge7" class="edge">
<title>joint2&#45;&gt;gpoZugaina</title>
<path fill="none" stroke="black" d="M181.68,-813.45C181.02,-811.42 159.86,-745.91 153.7,-691.5 143.1,-597.95 167.13,-487.12 180.1,-436.58"/>
<polygon fill="black" stroke="black" points="183.67,-437.75 182.83,-427.19 176.9,-435.97 183.67,-437.75"/>
<text text-anchor="middle" x="215.2" y="-606.2" font-family="Times,serif" font-size="14.00">Search the package in </text>
<text text-anchor="middle" x="215.2" y="-589.7" font-family="Times,serif" font-size="14.00"> &quot;all&quot; the overlays</text>
</g>
<!-- joint3&#45;&gt;emergeAsk -->
<g id="edge2" class="edge">
<title>joint3&#45;&gt;emergeAsk</title>
<path fill="none" stroke="black" d="M886.65,-813.4C885.23,-810.4 852.42,-741.3 833.62,-701.72"/>
<polygon fill="black" stroke="black" points="836.4,-700.41 828.95,-692.88 830.08,-703.42 836.4,-700.41"/>
<text text-anchor="middle" x="909.57" y="-738.95" font-family="Times,serif" font-size="14.00">a specific package</text>
</g>
<!-- joint3&#45;&gt;emergeUpdate -->
<g id="edge3" class="edge">
<title>joint3&#45;&gt;emergeUpdate</title>
<path fill="none" stroke="black" d="M886.58,-813.5C881.87,-813.65 730.25,-817.91 631.95,-760.5 607.07,-745.97 586.2,-720.25 572.8,-700.71"/>
<polygon fill="black" stroke="black" points="575.27,-699.1 566.83,-692.69 569.43,-702.96 575.27,-699.1"/>
<text text-anchor="middle" x="727.57" y="-738.95" font-family="Times,serif" font-size="14.00">Updates to your installed packages</text>
</g>
<!-- joint4&#45;&gt;qlist -->
<g id="edge15" class="edge">
<title>joint4&#45;&gt;qlist</title>
<path fill="none" stroke="black" d="M1237.7,-813.4C1237.83,-810.43 1240.76,-742.47 1242.48,-702.73"/>
<polygon fill="black" stroke="black" points="1246.01,-703.02 1242.95,-692.88 1239.02,-702.72 1246.01,-703.02"/>
</g>
<!-- joint5&#45;&gt;eselectRepo -->
<g id="edge17" class="edge">
<title>joint5&#45;&gt;eselectRepo</title>
<path fill="none" stroke="black" d="M574.7,-265.91C574.7,-263.37 574.7,-206.78 574.7,-171.44"/>
<polygon fill="black" stroke="black" points="578.2,-171.81 574.7,-161.81 571.2,-171.81 578.2,-171.81"/>
<text text-anchor="middle" x="614.82" y="-199.7" font-family="Times,serif" font-size="14.00">add an overlay</text>
</g>
<!-- joint6&#45;&gt;emergeDeselect -->
<g id="edge19" class="edge">
<title>joint6&#45;&gt;emergeDeselect</title>
<path fill="none" stroke="black" d="M1404.75,-813.4C1406.35,-810.4 1443.29,-741.01 1464.34,-701.46"/>
<polygon fill="black" stroke="black" points="1467.83,-703.35 1469.44,-692.88 1461.66,-700.06 1467.83,-703.35"/>
<text text-anchor="middle" x="1572.95" y="-738.95" font-family="Times,serif" font-size="14.00">This removes the package from the world file</text>
</g>
<!-- joint7&#45;&gt;genlop -->
<g id="edge22" class="edge">
<title>joint7&#45;&gt;genlop</title>
<path fill="none" stroke="black" d="M1726.73,-813.4C1727.74,-810.42 1750.91,-741.89 1764.32,-702.22"/>
<polygon fill="black" stroke="black" points="1767.93,-703.47 1767.82,-692.88 1761.3,-701.23 1767.93,-703.47"/>
<text text-anchor="middle" x="1816.32" y="-747.2" font-family="Times,serif" font-size="14.00">Check installation and </text>
<text text-anchor="middle" x="1816.32" y="-730.7" font-family="Times,serif" font-size="14.00"> uninstallation history</text>
</g>
<!-- joint8 -->
<g id="node22" class="node">
<title>joint8</title>
</g>
<!-- joint9 -->
<g id="node23" class="node">
<title>joint9</title>
</g>
<!-- joint10 -->
<g id="node24" class="node">
<title>joint10</title>
</g>
<!-- joint11 -->
<g id="node25" class="node">
<title>joint11</title>
</g>
</g>
</svg>
