<?xml version="1.0" encoding="UTF-8" standalone="no"?>
<!DOCTYPE svg PUBLIC "-//W3C//DTD SVG 1.1//EN"
 "http://www.w3.org/Graphics/SVG/1.1/DTD/svg11.dtd">
<!-- Generated by graphviz version 8.0.5 (20230430.1635)
 -->
<!-- Title: cheat_sheet Pages: 1 -->
<svg width="1653pt" height="930pt"
 viewBox="0.00 0.00 1652.73 930.44" xmlns="http://www.w3.org/2000/svg" xmlns:xlink="http://www.w3.org/1999/xlink">
<g id="graph0" class="graph" transform="scale(1 1) rotate(0) translate(4 926.44)">
<title>cheat_sheet</title>
<polygon fill="white" stroke="none" points="-4,4 -4,-926.44 1648.73,-926.44 1648.73,4 -4,4"/>
<!-- start -->
<g id="node1" class="node">
<title>start</title>
<polygon fill="none" stroke="black" points="991.38,-922.44 937.38,-922.44 937.38,-886.44 991.38,-886.44 991.38,-922.44"/>
<text text-anchor="middle" x="964.38" y="-899.39" font-family="Times,serif" font-size="14.00">Start</text>
</g>
<!-- joint2 -->
<g id="node13" class="node">
<title>joint2</title>
</g>
<!-- start&#45;&gt;joint2 -->
<g id="edge4" class="edge">
<title>start&#45;&gt;joint2</title>
<path fill="none" stroke="black" d="M936.89,-897.92C829.71,-876.38 445.44,-799.16 439.45,-797.95"/>
<text text-anchor="middle" x="712.25" y="-837.14" font-family="Times,serif" font-size="14.00">searching</text>
</g>
<!-- joint3 -->
<g id="node14" class="node">
<title>joint3</title>
</g>
<!-- start&#45;&gt;joint3 -->
<g id="edge1" class="edge">
<title>start&#45;&gt;joint3</title>
<path fill="none" stroke="black" d="M937.12,-895.82C909.34,-887.31 865.69,-871.87 832.12,-850.44 804.34,-832.7 778.07,-800.06 776.45,-798.04"/>
<text text-anchor="middle" x="857.5" y="-837.14" font-family="Times,serif" font-size="14.00">installing</text>
</g>
<!-- joint4 -->
<g id="node15" class="node">
<title>joint4</title>
</g>
<!-- start&#45;&gt;joint4 -->
<g id="edge13" class="edge">
<title>start&#45;&gt;joint4</title>
<path fill="none" stroke="black" d="M991.67,-887.87C1042.33,-858.99 1146.07,-799.83 1149.3,-797.98"/>
<text text-anchor="middle" x="1101.25" y="-837.14" font-family="Times,serif" font-size="14.00">listing</text>
</g>
<!-- joint5 -->
<g id="node16" class="node">
<title>joint5</title>
</g>
<!-- start&#45;&gt;joint5 -->
<g id="edge15" class="edge">
<title>start&#45;&gt;joint5</title>
<path fill="none" stroke="black" d="M964.38,-886.26C964.38,-865.38 964.38,-829.08 964.38,-797.94 964.38,-797.94 964.38,-797.94 964.38,-407 964.38,-309.67 551.9,-268.64 545.45,-268.01"/>
<text text-anchor="middle" x="987.25" y="-597.95" font-family="Times,serif" font-size="14.00">overlays</text>
</g>
<!-- joint6 -->
<g id="node17" class="node">
<title>joint6</title>
</g>
<!-- start&#45;&gt;joint6 -->
<g id="edge17" class="edge">
<title>start&#45;&gt;joint6</title>
<path fill="none" stroke="black" d="M991.57,-895.77C1076.96,-871.68 1334.31,-799.09 1338.33,-797.95"/>
<text text-anchor="middle" x="1239.25" y="-837.14" font-family="Times,serif" font-size="14.00">uninstalling</text>
</g>
<!-- emergeAsk -->
<g id="node2" class="node">
<title>emergeAsk</title>
<polygon fill="none" stroke="black" points="732.75,-691.5 662,-691.5 662,-655.5 732.75,-655.5 732.75,-691.5"/>
<text text-anchor="middle" x="697.38" y="-668.45" font-family="Times,serif" font-size="14.00">emerge &#45;a</text>
</g>
<!-- guru -->
<g id="node11" class="node">
<title>guru</title>
<g id="a_node11"><a xlink:href="https://gitweb.gentoo.org/repo/proj/guru.git/tree/" xlink:title="Check the guru overlay">
<polygon fill="none" stroke="black" points="564.12,-550.5 420.62,-550.5 420.62,-514.5 564.12,-514.5 564.12,-550.5"/>
<text text-anchor="middle" x="492.38" y="-527.45" font-family="Times,serif" font-size="14.00">Check the guru overlay</text>
</a>
</g>
</g>
<!-- emergeAsk&#45;&gt;guru -->
<g id="edge3" class="edge">
<title>emergeAsk&#45;&gt;guru</title>
<path fill="none" stroke="black" d="M662.81,-655.17C644.18,-645.4 621.04,-632.56 601.38,-619.5 572.61,-600.4 541.9,-575.74 520.44,-557.73"/>
<polygon fill="black" stroke="black" points="523.02,-554.48 513.12,-550.7 518.5,-559.83 523.02,-554.48"/>
<text text-anchor="middle" x="715.38" y="-597.95" font-family="Times,serif" font-size="14.00">Are there no ebuilds to satisfy a package?</text>
</g>
<!-- emergeSearch -->
<g id="node3" class="node">
<title>emergeSearch</title>
<polygon fill="none" stroke="black" points="491.25,-691.5 387.5,-691.5 387.5,-655.5 491.25,-655.5 491.25,-691.5"/>
<text text-anchor="middle" x="439.38" y="-668.45" font-family="Times,serif" font-size="14.00">emerge &#45;&#45;search</text>
</g>
<!-- emergeSearch&#45;&gt;guru -->
<g id="edge8" class="edge">
<title>emergeSearch&#45;&gt;guru</title>
<path fill="none" stroke="black" d="M428.18,-655.19C418.09,-637.21 406.45,-608.66 417.88,-586.5 424.08,-574.48 434.4,-564.59 445.42,-556.74"/>
<polygon fill="black" stroke="black" points="446.91,-559.3 453.35,-550.88 443.07,-553.45 446.91,-559.3"/>
<text text-anchor="middle" x="453.62" y="-597.95" font-family="Times,serif" font-size="14.00">It isn&#39;t there?</text>
</g>
<!-- gpoZugaina -->
<g id="node4" class="node">
<title>gpoZugaina</title>
<g id="a_node4"><a xlink:href="https://graphviz.org/docs/nodes/" xlink:title="Go to gpo.zugaina.org">
<polygon fill="none" stroke="black" points="296.5,-426 158.25,-426 158.25,-390 296.5,-390 296.5,-426"/>
<text text-anchor="middle" x="227.38" y="-402.95" font-family="Times,serif" font-size="14.00">Go to gpo.zugaina.org</text>
</a>
</g>
</g>
<!-- ebuildWriting -->
<g id="node7" class="node">
<title>ebuildWriting</title>
<g id="a_node7"><a xlink:href="https://devmanual.gentoo.org/ebuild-writing/index.html" xlink:title="Go to ebuild writing guide">
<polygon fill="none" stroke="black" points="160.75,-285 0,-285 0,-249 160.75,-249 160.75,-285"/>
<text text-anchor="middle" x="80.38" y="-261.95" font-family="Times,serif" font-size="14.00">Go to ebuild writing guide</text>
</a>
</g>
</g>
<!-- gpoZugaina&#45;&gt;ebuildWriting -->
<g id="edge12" class="edge">
<title>gpoZugaina&#45;&gt;ebuildWriting</title>
<path fill="none" stroke="black" d="M158.11,-404C122.13,-398.49 81.01,-385.14 58.12,-354 45.49,-336.8 53.01,-313.07 62.6,-294.89"/>
<polygon fill="black" stroke="black" points="66.08,-296.86 68.02,-286.44 60.01,-293.37 66.08,-296.86"/>
<text text-anchor="middle" x="130" y="-340.7" font-family="Times,serif" font-size="14.00">It&#39;s not there either? </text>
<text text-anchor="middle" x="130" y="-324.2" font-family="Times,serif" font-size="14.00"> You can write it yourself!</text>
</g>
<!-- gpoZugaina&#45;&gt;joint5 -->
<g id="edge10" class="edge">
<title>gpoZugaina&#45;&gt;joint5</title>
<path fill="none" stroke="black" d="M240.16,-389.6C255.62,-369.86 283.5,-338.2 314.88,-321 405.61,-271.27 541.06,-268.09 545.27,-268"/>
<text text-anchor="middle" x="389.62" y="-340.7" font-family="Times,serif" font-size="14.00">It&#39;s in an overlay you don&#39;t </text>
<text text-anchor="middle" x="389.62" y="-324.2" font-family="Times,serif" font-size="14.00"> have in your system?</text>
</g>
<!-- eselectRepo -->
<g id="node5" class="node">
<title>eselectRepo</title>
<polygon fill="none" stroke="black" points="667.75,-160.5 423,-160.5 423,-124.5 667.75,-124.5 667.75,-160.5"/>
<text text-anchor="middle" x="545.38" y="-137.45" font-family="Times,serif" font-size="14.00">eselect repository enable &lt;overlay name&gt;</text>
</g>
<!-- eselectRepoSync1 -->
<g id="node6" class="node">
<title>eselectRepoSync1</title>
<polygon fill="none" stroke="black" points="668.88,-36 421.88,-36 421.88,0 668.88,0 668.88,-36"/>
<text text-anchor="middle" x="545.38" y="-12.95" font-family="Times,serif" font-size="14.00">eselect repository sync &#45;r &lt;overlay name&gt;</text>
</g>
<!-- eselectRepo&#45;&gt;eselectRepoSync1 -->
<g id="edge11" class="edge">
<title>eselectRepo&#45;&gt;eselectRepoSync1</title>
<path fill="none" stroke="black" d="M545.38,-124.21C545.38,-104.14 545.38,-70.78 545.38,-47"/>
<polygon fill="black" stroke="black" points="548.88,-47.2 545.38,-37.2 541.88,-47.2 548.88,-47.2"/>
<text text-anchor="middle" x="647.38" y="-75.2" font-family="Times,serif" font-size="14.00">Sync the repository with your system</text>
</g>
<!-- qlist -->
<g id="node8" class="node">
<title>qlist</title>
<polygon fill="none" stroke="black" points="1205.12,-691.5 1127.62,-691.5 1127.62,-655.5 1205.12,-655.5 1205.12,-691.5"/>
<text text-anchor="middle" x="1166.38" y="-668.45" font-family="Times,serif" font-size="14.00" fill="#0000cd">qlist &#45;IURv</text>
</g>
<!-- emergeDeselect -->
<g id="node9" class="node">
<title>emergeDeselect</title>
<polygon fill="none" stroke="black" points="1490,-691.5 1312.75,-691.5 1312.75,-655.5 1490,-655.5 1490,-691.5"/>
<text text-anchor="middle" x="1401.38" y="-668.45" font-family="Times,serif" font-size="14.00">emerge &#45;&#45;deselect &lt;package&gt;</text>
</g>
<!-- emergeDepclean -->
<g id="node10" class="node">
<title>emergeDepclean</title>
<polygon fill="none" stroke="black" points="1460,-550.5 1342.75,-550.5 1342.75,-514.5 1460,-514.5 1460,-550.5"/>
<text text-anchor="middle" x="1401.38" y="-527.45" font-family="Times,serif" font-size="14.00">emerge &#45;&#45;depclean</text>
</g>
<!-- emergeDeselect&#45;&gt;emergeDepclean -->
<g id="edge19" class="edge">
<title>emergeDeselect&#45;&gt;emergeDepclean</title>
<path fill="none" stroke="black" d="M1401.38,-655.18C1401.38,-631.64 1401.38,-589.28 1401.38,-561.28"/>
<polygon fill="black" stroke="black" points="1404.88,-561.61 1401.38,-551.61 1397.88,-561.61 1404.88,-561.61"/>
<text text-anchor="middle" x="1484.62" y="-606.2" font-family="Times,serif" font-size="14.00">This uninstalls the package &amp; </text>
<text text-anchor="middle" x="1484.62" y="-589.7" font-family="Times,serif" font-size="14.00"> its unneeded dependencies</text>
</g>
<!-- guru&#45;&gt;gpoZugaina -->
<g id="edge9" class="edge">
<title>guru&#45;&gt;gpoZugaina</title>
<path fill="none" stroke="black" d="M444.39,-514C418.6,-504.23 386.43,-491.44 358.38,-478.5 327.18,-464.11 292.91,-445.83 267.25,-431.64"/>
<polygon fill="black" stroke="black" points="269.3,-428.22 258.86,-426.41 265.89,-434.33 269.3,-428.22"/>
<text text-anchor="middle" x="410.88" y="-465.2" font-family="Times,serif" font-size="14.00">It isn&#39;t there either?</text>
</g>
<!-- guru&#45;&gt;joint5 -->
<g id="edge7" class="edge">
<title>guru&#45;&gt;joint5</title>
<path fill="none" stroke="black" d="M495.85,-514.21C507.46,-456.51 544.2,-273.83 545.35,-268.14"/>
<text text-anchor="middle" x="644.75" y="-402.95" font-family="Times,serif" font-size="14.00">You don&#39;t have guru enabled in your system?</text>
</g>
<!-- joint1 -->
<g id="node12" class="node">
<title>joint1</title>
</g>
<!-- joint2&#45;&gt;emergeSearch -->
<g id="edge5" class="edge">
<title>joint2&#45;&gt;emergeSearch</title>
<path fill="none" stroke="black" d="M439.38,-796.41C439.38,-793.89 439.38,-737.81 439.38,-702.6"/>
<polygon fill="black" stroke="black" points="442.88,-703 439.38,-693 435.88,-703 442.88,-703"/>
<text text-anchor="middle" x="527.88" y="-747.2" font-family="Times,serif" font-size="14.00">Search a package in </text>
<text text-anchor="middle" x="527.88" y="-730.7" font-family="Times,serif" font-size="14.00"> overlays present in your system</text>
</g>
<!-- joint2&#45;&gt;gpoZugaina -->
<g id="edge6" class="edge">
<title>joint2&#45;&gt;gpoZugaina</title>
<path fill="none" stroke="black" d="M439.28,-796.44C435.46,-794.05 312.87,-716.85 263.38,-619.5 232.96,-559.69 227.56,-479.24 227,-437.22"/>
<polygon fill="black" stroke="black" points="230.5,-437.43 226.96,-427.44 223.5,-437.46 230.5,-437.43"/>
<text text-anchor="middle" x="324.88" y="-606.2" font-family="Times,serif" font-size="14.00">Search the package in </text>
<text text-anchor="middle" x="324.88" y="-589.7" font-family="Times,serif" font-size="14.00"> &quot;all&quot; the overlays</text>
</g>
<!-- joint3&#45;&gt;emergeAsk -->
<g id="edge2" class="edge">
<title>joint3&#45;&gt;emergeAsk</title>
<path fill="none" stroke="black" d="M776.32,-796.41C774.65,-793.84 737.1,-735.85 714.4,-700.79"/>
<polygon fill="black" stroke="black" points="717.08,-699.49 708.7,-693 711.2,-703.29 717.08,-699.49"/>
<text text-anchor="middle" x="798.75" y="-738.95" font-family="Times,serif" font-size="14.00">install a package</text>
</g>
<!-- joint4&#45;&gt;qlist -->
<g id="edge14" class="edge">
<title>joint4&#45;&gt;qlist</title>
<path fill="none" stroke="black" d="M1149.39,-796.41C1149.74,-793.89 1157.55,-737.81 1162.46,-702.6"/>
<polygon fill="black" stroke="black" points="1166.02,-703.38 1163.94,-693 1159.09,-702.42 1166.02,-703.38"/>
</g>
<!-- joint5&#45;&gt;eselectRepo -->
<g id="edge16" class="edge">
<title>joint5&#45;&gt;eselectRepo</title>
<path fill="none" stroke="black" d="M545.38,-265.91C545.38,-263.37 545.38,-206.78 545.38,-171.44"/>
<polygon fill="black" stroke="black" points="548.88,-171.81 545.38,-161.81 541.88,-171.81 548.88,-171.81"/>
<text text-anchor="middle" x="585.5" y="-199.7" font-family="Times,serif" font-size="14.00">add an overlay</text>
</g>
<!-- joint6&#45;&gt;emergeDeselect -->
<g id="edge18" class="edge">
<title>joint6&#45;&gt;emergeDeselect</title>
<path fill="none" stroke="black" d="M1338.42,-796.41C1339.74,-793.86 1369.19,-736.83 1387.33,-701.69"/>
<polygon fill="black" stroke="black" points="1390.86,-703.49 1392.34,-693 1384.64,-700.28 1390.86,-703.49"/>
<text text-anchor="middle" x="1499.62" y="-738.95" font-family="Times,serif" font-size="14.00">This removes the package from the world file</text>
</g>
<!-- joint7 -->
<g id="node18" class="node">
<title>joint7</title>
</g>
<!-- joint8 -->
<g id="node19" class="node">
<title>joint8</title>
</g>
<!-- joint9 -->
<g id="node20" class="node">
<title>joint9</title>
</g>
<!-- joint10 -->
<g id="node21" class="node">
<title>joint10</title>
</g>
<!-- joint11 -->
<g id="node22" class="node">
<title>joint11</title>
</g>
</g>
</svg>
