<?xml version="1.0" encoding="UTF-8" standalone="no"?>
<!DOCTYPE svg PUBLIC "-//W3C//DTD SVG 1.1//EN"
 "http://www.w3.org/Graphics/SVG/1.1/DTD/svg11.dtd">
<!-- Generated by graphviz version 8.0.5 (20230430.1635)
 -->
<!-- Title: cheat_sheet Pages: 1 -->
<svg width="1647pt" height="930pt"
 viewBox="0.00 0.00 1646.95 930.44" xmlns="http://www.w3.org/2000/svg" xmlns:xlink="http://www.w3.org/1999/xlink">
<g id="graph0" class="graph" transform="scale(1 1) rotate(0) translate(4 926.44)">
<title>cheat_sheet</title>
<polygon fill="white" stroke="none" points="-4,4 -4,-926.44 1642.95,-926.44 1642.95,4 -4,4"/>
<!-- start -->
<g id="node1" class="node">
<title>start</title>
<polygon fill="none" stroke="black" points="962.7,-922.44 908.7,-922.44 908.7,-886.44 962.7,-886.44 962.7,-922.44"/>
<text text-anchor="middle" x="935.7" y="-899.39" font-family="Times,serif" font-size="14.00">Start</text>
</g>
<!-- joint2 -->
<g id="node14" class="node">
<title>joint2</title>
</g>
<!-- start&#45;&gt;joint2 -->
<g id="edge4" class="edge">
<title>start&#45;&gt;joint2</title>
<path fill="none" stroke="black" d="M908.5,-898.28C797.75,-877.26 386.2,-799.17 379.77,-797.95"/>
<text text-anchor="middle" x="667.57" y="-837.14" font-family="Times,serif" font-size="14.00">searching</text>
</g>
<!-- joint3 -->
<g id="node15" class="node">
<title>joint3</title>
</g>
<!-- start&#45;&gt;joint3 -->
<g id="edge1" class="edge">
<title>start&#45;&gt;joint3</title>
<path fill="none" stroke="black" d="M908.39,-894.26C879,-884.2 830.99,-867.24 790.45,-850.44 740.18,-829.61 679.62,-798.92 677.74,-797.96"/>
<text text-anchor="middle" x="815.82" y="-837.14" font-family="Times,serif" font-size="14.00">installing</text>
</g>
<!-- joint4 -->
<g id="node16" class="node">
<title>joint4</title>
</g>
<!-- start&#45;&gt;joint4 -->
<g id="edge13" class="edge">
<title>start&#45;&gt;joint4</title>
<path fill="none" stroke="black" d="M918.19,-886.02C889.03,-856.99 833.32,-801.54 829.87,-798.11"/>
<text text-anchor="middle" x="896.57" y="-837.14" font-family="Times,serif" font-size="14.00">listing</text>
</g>
<!-- joint5 -->
<g id="node17" class="node">
<title>joint5</title>
</g>
<!-- start&#45;&gt;joint5 -->
<g id="edge15" class="edge">
<title>start&#45;&gt;joint5</title>
<path fill="none" stroke="black" d="M955.44,-886.14C975.2,-866.81 1002.7,-833.52 1002.7,-797.94 1002.7,-797.94 1002.7,-797.94 1002.7,-407 1002.7,-307.78 581.36,-268.61 574.78,-268.01"/>
<text text-anchor="middle" x="1025.57" y="-597.95" font-family="Times,serif" font-size="14.00">overlays</text>
</g>
<!-- joint6 -->
<g id="node18" class="node">
<title>joint6</title>
</g>
<!-- start&#45;&gt;joint6 -->
<g id="edge17" class="edge">
<title>start&#45;&gt;joint6</title>
<path fill="none" stroke="black" d="M963.16,-891.9C988.16,-881.32 1026.04,-865.13 1058.7,-850.44 1108.05,-828.25 1168.77,-798.87 1170.65,-797.96"/>
<text text-anchor="middle" x="1124.57" y="-837.14" font-family="Times,serif" font-size="14.00">uninstalling</text>
</g>
<!-- joint7 -->
<g id="node19" class="node">
<title>joint7</title>
</g>
<!-- start&#45;&gt;joint7 -->
<g id="edge20" class="edge">
<title>start&#45;&gt;joint7</title>
<path fill="none" stroke="black" d="M963.04,-897.55C978.72,-894.21 998.8,-890 1016.7,-886.44 1223.97,-845.22 1483.61,-798.67 1487.65,-797.95"/>
<text text-anchor="middle" x="1323.32" y="-837.14" font-family="Times,serif" font-size="14.00">miscellaneous</text>
</g>
<!-- emergeAsk -->
<g id="node2" class="node">
<title>emergeAsk</title>
<polygon fill="none" stroke="black" points="654.07,-691.5 583.32,-691.5 583.32,-655.5 654.07,-655.5 654.07,-691.5"/>
<text text-anchor="middle" x="618.7" y="-668.45" font-family="Times,serif" font-size="14.00">emerge &#45;a</text>
</g>
<!-- guru -->
<g id="node11" class="node">
<title>guru</title>
<g id="a_node11"><a xlink:href="https://gitweb.gentoo.org/repo/proj/guru.git/tree/" xlink:title="Check the guru overlay">
<ellipse fill="none" stroke="black" cx="522.7" cy="-532.5" rx="97.93" ry="18"/>
<text text-anchor="middle" x="522.7" y="-527.45" font-family="Times,serif" font-size="14.00">Check the guru overlay</text>
</a>
</g>
</g>
<!-- emergeAsk&#45;&gt;guru -->
<g id="edge3" class="edge">
<title>emergeAsk&#45;&gt;guru</title>
<path fill="none" stroke="black" d="M606.73,-655.18C590.12,-631.11 559.92,-587.39 540.61,-559.43"/>
<polygon fill="black" stroke="black" points="543.07,-557.84 534.51,-551.61 537.31,-561.82 543.07,-557.84"/>
<text text-anchor="middle" x="693.7" y="-597.95" font-family="Times,serif" font-size="14.00">Are there no ebuilds to satisfy a package?</text>
</g>
<!-- emergeSearch -->
<g id="node3" class="node">
<title>emergeSearch</title>
<polygon fill="none" stroke="black" points="473.57,-691.5 369.82,-691.5 369.82,-655.5 473.57,-655.5 473.57,-691.5"/>
<text text-anchor="middle" x="421.7" y="-668.45" font-family="Times,serif" font-size="14.00">emerge &#45;&#45;search</text>
</g>
<!-- emergeSearch&#45;&gt;guru -->
<g id="edge8" class="edge">
<title>emergeSearch&#45;&gt;guru</title>
<path fill="none" stroke="black" d="M428.24,-655.31C435.61,-637.17 448.75,-608.26 465.2,-586.5 473.05,-576.11 483.09,-566.07 492.57,-557.57"/>
<polygon fill="black" stroke="black" points="494.43,-559.72 499.7,-550.53 489.85,-554.43 494.43,-559.72"/>
<text text-anchor="middle" x="500.95" y="-597.95" font-family="Times,serif" font-size="14.00">It isn&#39;t there?</text>
</g>
<!-- gpoZugaina -->
<g id="node4" class="node">
<title>gpoZugaina</title>
<g id="a_node4"><a xlink:href="https://graphviz.org/docs/nodes/" xlink:title="Go to gpo.zugaina.org">
<ellipse fill="none" stroke="black" cx="227.7" cy="-408" rx="94.34" ry="18"/>
<text text-anchor="middle" x="227.7" y="-402.95" font-family="Times,serif" font-size="14.00">Go to gpo.zugaina.org</text>
</a>
</g>
</g>
<!-- ebuildWriting -->
<g id="node7" class="node">
<title>ebuildWriting</title>
<g id="a_node7"><a xlink:href="https://devmanual.gentoo.org/ebuild-writing/index.html" xlink:title="Go to ebuild writing guide">
<ellipse fill="none" stroke="black" cx="109.7" cy="-267" rx="109.7" ry="18"/>
<text text-anchor="middle" x="109.7" y="-261.95" font-family="Times,serif" font-size="14.00">Go to ebuild writing guide</text>
</a>
</g>
</g>
<!-- gpoZugaina&#45;&gt;ebuildWriting -->
<g id="edge12" class="edge">
<title>gpoZugaina&#45;&gt;ebuildWriting</title>
<path fill="none" stroke="black" d="M153.62,-396.47C128.37,-388.94 102.69,-376.06 87.45,-354 75.31,-336.44 82.8,-312.74 92.24,-294.66"/>
<polygon fill="black" stroke="black" points="95.67,-296.7 97.57,-286.28 89.59,-293.24 95.67,-296.7"/>
<text text-anchor="middle" x="159.32" y="-340.7" font-family="Times,serif" font-size="14.00">It&#39;s not there either? </text>
<text text-anchor="middle" x="159.32" y="-324.2" font-family="Times,serif" font-size="14.00"> You can write it yourself!</text>
</g>
<!-- gpoZugaina&#45;&gt;joint5 -->
<g id="edge10" class="edge">
<title>gpoZugaina&#45;&gt;joint5</title>
<path fill="none" stroke="black" d="M245.54,-390.1C267.19,-370.54 305.6,-338.75 344.2,-321 438.21,-277.77 570.49,-268.29 574.6,-268.01"/>
<text text-anchor="middle" x="418.95" y="-340.7" font-family="Times,serif" font-size="14.00">It&#39;s in an overlay you don&#39;t </text>
<text text-anchor="middle" x="418.95" y="-324.2" font-family="Times,serif" font-size="14.00"> have in your system?</text>
</g>
<!-- eselectRepo -->
<g id="node5" class="node">
<title>eselectRepo</title>
<polygon fill="none" stroke="black" points="697.07,-160.5 452.32,-160.5 452.32,-124.5 697.07,-124.5 697.07,-160.5"/>
<text text-anchor="middle" x="574.7" y="-137.45" font-family="Times,serif" font-size="14.00">eselect repository enable &lt;overlay name&gt;</text>
</g>
<!-- eselectRepoSync1 -->
<g id="node6" class="node">
<title>eselectRepoSync1</title>
<polygon fill="none" stroke="black" points="698.2,-36 451.2,-36 451.2,0 698.2,0 698.2,-36"/>
<text text-anchor="middle" x="574.7" y="-12.95" font-family="Times,serif" font-size="14.00">eselect repository sync &#45;r &lt;overlay name&gt;</text>
</g>
<!-- eselectRepo&#45;&gt;eselectRepoSync1 -->
<g id="edge11" class="edge">
<title>eselectRepo&#45;&gt;eselectRepoSync1</title>
<path fill="none" stroke="black" d="M574.7,-124.21C574.7,-104.14 574.7,-70.78 574.7,-47"/>
<polygon fill="black" stroke="black" points="578.2,-47.2 574.7,-37.2 571.2,-47.2 578.2,-47.2"/>
<text text-anchor="middle" x="676.7" y="-75.2" font-family="Times,serif" font-size="14.00">Sync the repository with your system</text>
</g>
<!-- qlist -->
<g id="node8" class="node">
<title>qlist</title>
<polygon fill="none" stroke="black" points="839.45,-691.5 761.95,-691.5 761.95,-655.5 839.45,-655.5 839.45,-691.5"/>
<text text-anchor="middle" x="800.7" y="-668.45" font-family="Times,serif" font-size="14.00" fill="indigo">qlist &#45;IURv</text>
</g>
<!-- emergeDeselect -->
<g id="node9" class="node">
<title>emergeDeselect</title>
<polygon fill="none" stroke="black" points="1343.32,-691.5 1166.07,-691.5 1166.07,-655.5 1343.32,-655.5 1343.32,-691.5"/>
<text text-anchor="middle" x="1254.7" y="-668.45" font-family="Times,serif" font-size="14.00">emerge &#45;&#45;deselect &lt;package&gt;</text>
</g>
<!-- emergeDepclean -->
<g id="node10" class="node">
<title>emergeDepclean</title>
<polygon fill="none" stroke="black" points="1313.32,-550.5 1196.07,-550.5 1196.07,-514.5 1313.32,-514.5 1313.32,-550.5"/>
<text text-anchor="middle" x="1254.7" y="-527.45" font-family="Times,serif" font-size="14.00">emerge &#45;&#45;depclean</text>
</g>
<!-- emergeDeselect&#45;&gt;emergeDepclean -->
<g id="edge19" class="edge">
<title>emergeDeselect&#45;&gt;emergeDepclean</title>
<path fill="none" stroke="black" d="M1254.7,-655.18C1254.7,-631.64 1254.7,-589.28 1254.7,-561.28"/>
<polygon fill="black" stroke="black" points="1258.2,-561.61 1254.7,-551.61 1251.2,-561.61 1258.2,-561.61"/>
<text text-anchor="middle" x="1337.95" y="-606.2" font-family="Times,serif" font-size="14.00">This uninstalls the package &amp; </text>
<text text-anchor="middle" x="1337.95" y="-589.7" font-family="Times,serif" font-size="14.00"> its unneeded dependencies</text>
</g>
<!-- guru&#45;&gt;gpoZugaina -->
<g id="edge9" class="edge">
<title>guru&#45;&gt;gpoZugaina</title>
<path fill="none" stroke="black" d="M481.48,-515.76C454.67,-505.41 419,-491.44 387.7,-478.5 349.06,-462.53 305.56,-443.57 273.68,-429.49"/>
<polygon fill="black" stroke="black" points="275.32,-425.95 264.76,-425.1 272.49,-432.35 275.32,-425.95"/>
<text text-anchor="middle" x="440.2" y="-465.2" font-family="Times,serif" font-size="14.00">It isn&#39;t there either?</text>
</g>
<!-- guru&#45;&gt;joint5 -->
<g id="edge7" class="edge">
<title>guru&#45;&gt;joint5</title>
<path fill="none" stroke="black" d="M526.11,-514.21C537.5,-456.51 573.55,-273.83 574.67,-268.14"/>
<text text-anchor="middle" x="674.07" y="-402.95" font-family="Times,serif" font-size="14.00">You don&#39;t have guru enabled in your system?</text>
</g>
<!-- genlop -->
<g id="node12" class="node">
<title>genlop</title>
<polygon fill="none" stroke="black" points="1570.45,-691.5 1498.95,-691.5 1498.95,-655.5 1570.45,-655.5 1570.45,-691.5"/>
<text text-anchor="middle" x="1534.7" y="-668.45" font-family="Times,serif" font-size="14.00" fill="#0000cd">genlop &#45;lu</text>
</g>
<!-- joint1 -->
<g id="node13" class="node">
<title>joint1</title>
</g>
<!-- joint2&#45;&gt;emergeSearch -->
<g id="edge5" class="edge">
<title>joint2&#45;&gt;emergeSearch</title>
<path fill="none" stroke="black" d="M379.65,-796.45C378.65,-795.38 362.62,-777.99 357.7,-760.5 353.73,-746.38 351.46,-740.77 357.7,-727.5 363.06,-716.09 372.22,-706.29 381.96,-698.34"/>
<polygon fill="black" stroke="black" points="383.72,-700.65 389.59,-691.83 379.5,-695.06 383.72,-700.65"/>
<text text-anchor="middle" x="446.2" y="-747.2" font-family="Times,serif" font-size="14.00">Search a package in </text>
<text text-anchor="middle" x="446.2" y="-730.7" font-family="Times,serif" font-size="14.00"> overlays present in your system</text>
</g>
<!-- joint2&#45;&gt;gpoZugaina -->
<g id="edge6" class="edge">
<title>joint2&#45;&gt;gpoZugaina</title>
<path fill="none" stroke="black" d="M379.59,-796.46C377.49,-795.67 343.55,-782.64 327.7,-760.5 253.65,-657.05 234.25,-500 229.32,-436.79"/>
<polygon fill="black" stroke="black" points="232.76,-436.84 228.56,-427.12 225.78,-437.34 232.76,-436.84"/>
<text text-anchor="middle" x="324.2" y="-606.2" font-family="Times,serif" font-size="14.00">Search the package in </text>
<text text-anchor="middle" x="324.2" y="-589.7" font-family="Times,serif" font-size="14.00"> &quot;all&quot; the overlays</text>
</g>
<!-- joint3&#45;&gt;emergeAsk -->
<g id="edge2" class="edge">
<title>joint3&#45;&gt;emergeAsk</title>
<path fill="none" stroke="black" d="M677.65,-796.41C676.42,-793.86 648.84,-736.83 631.85,-701.69"/>
<polygon fill="black" stroke="black" points="634.66,-700.47 627.16,-693 628.36,-703.52 634.66,-700.47"/>
<text text-anchor="middle" x="706.07" y="-738.95" font-family="Times,serif" font-size="14.00">install a package</text>
</g>
<!-- joint4&#45;&gt;qlist -->
<g id="edge14" class="edge">
<title>joint4&#45;&gt;qlist</title>
<path fill="none" stroke="black" d="M829.68,-796.41C829.08,-793.89 815.75,-737.81 807.38,-702.6"/>
<polygon fill="black" stroke="black" points="810.57,-701.92 804.86,-693 803.76,-703.53 810.57,-701.92"/>
</g>
<!-- joint5&#45;&gt;eselectRepo -->
<g id="edge16" class="edge">
<title>joint5&#45;&gt;eselectRepo</title>
<path fill="none" stroke="black" d="M574.7,-265.91C574.7,-263.37 574.7,-206.78 574.7,-171.44"/>
<polygon fill="black" stroke="black" points="578.2,-171.81 574.7,-161.81 571.2,-171.81 578.2,-171.81"/>
<text text-anchor="middle" x="614.82" y="-199.7" font-family="Times,serif" font-size="14.00">add an overlay</text>
</g>
<!-- joint6&#45;&gt;emergeDeselect -->
<g id="edge18" class="edge">
<title>joint6&#45;&gt;emergeDeselect</title>
<path fill="none" stroke="black" d="M1170.76,-796.41C1172.53,-793.84 1212.46,-735.85 1236.6,-700.79"/>
<polygon fill="black" stroke="black" points="1239.86,-703.22 1242.65,-693 1234.1,-699.25 1239.86,-703.22"/>
<text text-anchor="middle" x="1342.95" y="-738.95" font-family="Times,serif" font-size="14.00">This removes the package from the world file</text>
</g>
<!-- joint7&#45;&gt;genlop -->
<g id="edge21" class="edge">
<title>joint7&#45;&gt;genlop</title>
<path fill="none" stroke="black" d="M1487.73,-796.41C1488.71,-793.87 1510.5,-737.32 1524.05,-702.14"/>
<polygon fill="black" stroke="black" points="1527.63,-703.59 1527.96,-693 1521.1,-701.07 1527.63,-703.59"/>
<text text-anchor="middle" x="1576.32" y="-747.2" font-family="Times,serif" font-size="14.00">Check installation and </text>
<text text-anchor="middle" x="1576.32" y="-730.7" font-family="Times,serif" font-size="14.00"> uninstallation history</text>
</g>
<!-- joint8 -->
<g id="node20" class="node">
<title>joint8</title>
</g>
<!-- joint9 -->
<g id="node21" class="node">
<title>joint9</title>
</g>
<!-- joint10 -->
<g id="node22" class="node">
<title>joint10</title>
</g>
<!-- joint11 -->
<g id="node23" class="node">
<title>joint11</title>
</g>
</g>
</svg>
