<?xml version="1.0" encoding="UTF-8" standalone="no"?>
<!DOCTYPE svg PUBLIC "-//W3C//DTD SVG 1.1//EN"
 "http://www.w3.org/Graphics/SVG/1.1/DTD/svg11.dtd">
<!-- Generated by graphviz version 8.0.5 (20230430.1635)
 -->
<!-- Title: cheat_sheet Pages: 1 -->
<svg width="2152pt" height="965pt"
 viewBox="0.00 0.00 2152.12 965.00" xmlns="http://www.w3.org/2000/svg" xmlns:xlink="http://www.w3.org/1999/xlink">
<g id="graph0" class="graph" transform="scale(1 1) rotate(0) translate(4 961)">
<title>cheat_sheet</title>
<polygon fill="white" stroke="none" points="-4,4 -4,-961 2148.12,-961 2148.12,4 -4,4"/>
<!-- start -->
<g id="node1" class="node">
<title>start</title>
<polygon fill="none" stroke="black" points="842.88,-957 788.88,-957 788.88,-921 842.88,-921 842.88,-957"/>
<text text-anchor="middle" x="815.88" y="-933.95" font-family="Times,serif" font-size="14.00">Start</text>
</g>
<!-- emaintSyncAll -->
<g id="node8" class="node">
<title>emaintSyncAll</title>
<polygon fill="none" stroke="black" points="235.88,-832.5 117.88,-832.5 117.88,-796.5 235.88,-796.5 235.88,-832.5"/>
<text text-anchor="middle" x="176.88" y="-809.45" font-family="Times,serif" font-size="14.00">emaint sync &#45;&#45;auto</text>
</g>
<!-- start&#45;&gt;emaintSyncAll -->
<g id="edge21" class="edge">
<title>start&#45;&gt;emaintSyncAll</title>
<path fill="none" stroke="black" d="M788.5,-937.27C716.59,-934.83 516.8,-924.72 356.12,-885 309.48,-873.47 258.61,-852.93 223.02,-837.16"/>
<polygon fill="black" stroke="black" points="224.96,-833.74 214.4,-832.85 222.09,-840.13 224.96,-833.74"/>
<text text-anchor="middle" x="448.75" y="-871.7" font-family="Times,serif" font-size="14.00">update (sync all of your overlays)</text>
</g>
<!-- joint2 -->
<g id="node16" class="node">
<title>joint2</title>
</g>
<!-- start&#45;&gt;joint2 -->
<g id="edge4" class="edge">
<title>start&#45;&gt;joint2</title>
<path fill="none" stroke="black" d="M827.45,-920.71C849.7,-887.47 896.39,-817.72 897.84,-815.55"/>
<text text-anchor="middle" x="887.75" y="-871.7" font-family="Times,serif" font-size="14.00">searching</text>
</g>
<!-- joint3 -->
<g id="node17" class="node">
<title>joint3</title>
</g>
<!-- start&#45;&gt;joint3 -->
<g id="edge1" class="edge">
<title>start&#45;&gt;joint3</title>
<path fill="none" stroke="black" d="M788.42,-932.34C763.76,-925.64 729.01,-911.83 712.62,-885 696.25,-858.19 732.48,-818.1 734.76,-815.62"/>
<text text-anchor="middle" x="738" y="-871.7" font-family="Times,serif" font-size="14.00">installing</text>
</g>
<!-- joint4 -->
<g id="node18" class="node">
<title>joint4</title>
</g>
<!-- start&#45;&gt;joint4 -->
<g id="edge18" class="edge">
<title>start&#45;&gt;joint4</title>
<path fill="none" stroke="black" d="M843.06,-931.14C858.69,-927.49 878.77,-923.29 896.88,-921 1074.97,-898.49 1530.84,-932.77 1703.88,-885 1765.67,-867.94 1830.81,-817.12 1832.83,-815.54"/>
<text text-anchor="middle" x="1784.5" y="-871.7" font-family="Times,serif" font-size="14.00">miscellaneous</text>
</g>
<!-- joint5 -->
<g id="node19" class="node">
<title>joint5</title>
</g>
<!-- start&#45;&gt;joint5 -->
<g id="edge13" class="edge">
<title>start&#45;&gt;joint5</title>
<path fill="none" stroke="black" d="M843.16,-931.82C858.83,-928.38 878.9,-924.17 896.88,-921 1059.15,-892.34 1630.88,-980.29 1630.88,-815.5 1630.88,-815.5 1630.88,-815.5 1630.88,-407 1630.88,-311.55 1227.26,-268.67 1220.95,-268.01"/>
<text text-anchor="middle" x="1653.75" y="-597.95" font-family="Times,serif" font-size="14.00">overlays</text>
</g>
<!-- joint6 -->
<g id="node20" class="node">
<title>joint6</title>
</g>
<!-- start&#45;&gt;joint6 -->
<g id="edge15" class="edge">
<title>start&#45;&gt;joint6</title>
<path fill="none" stroke="black" d="M788.53,-931.25C750.23,-921.67 678.52,-903.25 618.12,-885 526.98,-857.46 415.42,-816.79 411.96,-815.53"/>
<text text-anchor="middle" x="650.75" y="-871.7" font-family="Times,serif" font-size="14.00">uninstalling</text>
</g>
<!-- emergeAsk -->
<g id="node2" class="node">
<title>emergeAsk</title>
<polygon fill="none" stroke="black" points="682.25,-691.5 611.5,-691.5 611.5,-655.5 682.25,-655.5 682.25,-691.5"/>
<text text-anchor="middle" x="646.88" y="-668.45" font-family="Times,serif" font-size="14.00">emerge &#45;a</text>
</g>
<!-- guru -->
<g id="node13" class="node">
<title>guru</title>
<g id="a_node13"><a xlink:href="https://gitweb.gentoo.org/repo/proj/guru.git/tree/" xlink:title="Check the guru overlay">
<ellipse fill="none" stroke="black" cx="1148.88" cy="-532.5" rx="97.93" ry="18"/>
<text text-anchor="middle" x="1148.88" y="-527.45" font-family="Times,serif" font-size="14.00">Check the guru overlay</text>
</a>
</g>
</g>
<!-- emergeAsk&#45;&gt;guru -->
<g id="edge3" class="edge">
<title>emergeAsk&#45;&gt;guru</title>
<path fill="none" stroke="black" d="M611.14,-661.9C567.32,-647.19 502.29,-618.73 531.88,-586.5 565.49,-549.88 872.54,-538.51 1040.42,-535.02"/>
<polygon fill="black" stroke="black" points="1040.34,-538.5 1050.27,-534.8 1040.2,-531.5 1040.34,-538.5"/>
<text text-anchor="middle" x="645.88" y="-597.95" font-family="Times,serif" font-size="14.00">Are there no ebuilds to satisfy a package?</text>
</g>
<!-- emergeUpdate -->
<g id="node3" class="node">
<title>emergeUpdate</title>
<polygon fill="none" stroke="black" points="151.75,-691.5 0,-691.5 0,-655.5 151.75,-655.5 151.75,-691.5"/>
<text text-anchor="middle" x="75.88" y="-668.45" font-family="Times,serif" font-size="14.00">emerge &#45;avuDN @world</text>
</g>
<!-- emergeDepclean -->
<g id="node12" class="node">
<title>emergeDepclean</title>
<polygon fill="none" stroke="black" points="229.5,-550.5 112.25,-550.5 112.25,-514.5 229.5,-514.5 229.5,-550.5"/>
<text text-anchor="middle" x="170.88" y="-527.45" font-family="Times,serif" font-size="14.00">emerge &#45;&#45;depclean</text>
</g>
<!-- emergeUpdate&#45;&gt;emergeDepclean -->
<g id="edge23" class="edge">
<title>emergeUpdate&#45;&gt;emergeDepclean</title>
<path fill="none" stroke="black" d="M87.71,-655.18C104.16,-631.11 134.04,-587.39 153.15,-559.43"/>
<polygon fill="black" stroke="black" points="156.43,-561.84 159.18,-551.61 150.65,-557.89 156.43,-561.84"/>
</g>
<!-- emergeSearch -->
<g id="node4" class="node">
<title>emergeSearch</title>
<polygon fill="none" stroke="black" points="1184.75,-691.5 1081,-691.5 1081,-655.5 1184.75,-655.5 1184.75,-691.5"/>
<text text-anchor="middle" x="1132.88" y="-668.45" font-family="Times,serif" font-size="14.00">emerge &#45;&#45;search</text>
</g>
<!-- emergeSearch&#45;&gt;guru -->
<g id="edge8" class="edge">
<title>emergeSearch&#45;&gt;guru</title>
<path fill="none" stroke="black" d="M1134.87,-655.18C1137.58,-631.64 1142.45,-589.28 1145.68,-561.28"/>
<polygon fill="black" stroke="black" points="1149.24,-561.94 1146.91,-551.61 1142.29,-561.14 1149.24,-561.94"/>
<text text-anchor="middle" x="1178.12" y="-597.95" font-family="Times,serif" font-size="14.00">It isn&#39;t there?</text>
</g>
<!-- gpoZugaina -->
<g id="node5" class="node">
<title>gpoZugaina</title>
<g id="a_node5"><a xlink:href="https://graphviz.org/docs/nodes/" xlink:title="Go to gpo.zugaina.org">
<ellipse fill="none" stroke="black" cx="899.88" cy="-408" rx="94.34" ry="18"/>
<text text-anchor="middle" x="899.88" y="-402.95" font-family="Times,serif" font-size="14.00">Go to gpo.zugaina.org</text>
</a>
</g>
</g>
<!-- ebuildWriting -->
<g id="node9" class="node">
<title>ebuildWriting</title>
<g id="a_node9"><a xlink:href="https://devmanual.gentoo.org/ebuild-writing/index.html" xlink:title="Go to ebuild writing guide">
<ellipse fill="none" stroke="black" cx="755.88" cy="-267" rx="109.7" ry="18"/>
<text text-anchor="middle" x="755.88" y="-261.95" font-family="Times,serif" font-size="14.00">Go to ebuild writing guide</text>
</a>
</g>
</g>
<!-- gpoZugaina&#45;&gt;ebuildWriting -->
<g id="edge12" class="edge">
<title>gpoZugaina&#45;&gt;ebuildWriting</title>
<path fill="none" stroke="black" d="M814.18,-400.24C783.73,-393.21 752.39,-379.68 733.62,-354 720.96,-336.67 728.65,-312.75 738.3,-294.54"/>
<polygon fill="black" stroke="black" points="741.79,-296.5 743.75,-286.09 735.72,-293 741.79,-296.5"/>
<text text-anchor="middle" x="805.5" y="-340.7" font-family="Times,serif" font-size="14.00">It&#39;s not there either? </text>
<text text-anchor="middle" x="805.5" y="-324.2" font-family="Times,serif" font-size="14.00"> You can write it yourself!</text>
</g>
<!-- gpoZugaina&#45;&gt;joint5 -->
<g id="edge10" class="edge">
<title>gpoZugaina&#45;&gt;joint5</title>
<path fill="none" stroke="black" d="M912.95,-389.96C929,-370.26 958.11,-338.33 990.38,-321 1081.53,-272.03 1216.58,-268.11 1220.77,-268"/>
<text text-anchor="middle" x="1065.12" y="-340.7" font-family="Times,serif" font-size="14.00">It&#39;s in an overlay you don&#39;t </text>
<text text-anchor="middle" x="1065.12" y="-324.2" font-family="Times,serif" font-size="14.00"> have in your system?</text>
</g>
<!-- eselectRepo -->
<g id="node6" class="node">
<title>eselectRepo</title>
<polygon fill="none" stroke="black" points="1343.25,-160.5 1098.5,-160.5 1098.5,-124.5 1343.25,-124.5 1343.25,-160.5"/>
<text text-anchor="middle" x="1220.88" y="-137.45" font-family="Times,serif" font-size="14.00">eselect repository enable &lt;overlay name&gt;</text>
</g>
<!-- emaintSync -->
<g id="node7" class="node">
<title>emaintSync</title>
<polygon fill="none" stroke="black" points="1315.5,-36 1126.25,-36 1126.25,0 1315.5,0 1315.5,-36"/>
<text text-anchor="middle" x="1220.88" y="-12.95" font-family="Times,serif" font-size="14.00">emaint sync &#45;r &lt;overlay name&gt;</text>
</g>
<!-- eselectRepo&#45;&gt;emaintSync -->
<g id="edge11" class="edge">
<title>eselectRepo&#45;&gt;emaintSync</title>
<path fill="none" stroke="black" d="M1220.88,-124.21C1220.88,-104.14 1220.88,-70.78 1220.88,-47"/>
<polygon fill="black" stroke="black" points="1224.38,-47.2 1220.88,-37.2 1217.38,-47.2 1224.38,-47.2"/>
<text text-anchor="middle" x="1322.88" y="-75.2" font-family="Times,serif" font-size="14.00">Sync the repository with your system</text>
</g>
<!-- emaintSyncAll&#45;&gt;emergeUpdate -->
<g id="edge22" class="edge">
<title>emaintSyncAll&#45;&gt;emergeUpdate</title>
<path fill="none" stroke="black" d="M159.25,-796.12C149.55,-786.13 137.59,-773.09 128.12,-760.5 113.99,-741.71 100.28,-718.91 90.45,-701.5"/>
<polygon fill="black" stroke="black" points="93.06,-699.99 85.14,-692.95 86.94,-703.39 93.06,-699.99"/>
<text text-anchor="middle" x="223.75" y="-738.95" font-family="Times,serif" font-size="14.00">Updates to your installed packages</text>
</g>
<!-- qlist -->
<g id="node10" class="node">
<title>qlist</title>
<polygon fill="none" stroke="black" points="1871.62,-691.5 1794.12,-691.5 1794.12,-655.5 1871.62,-655.5 1871.62,-691.5"/>
<text text-anchor="middle" x="1832.88" y="-668.45" font-family="Times,serif" font-size="14.00" fill="indigo">qlist &#45;IURv</text>
</g>
<!-- emergeDeselect -->
<g id="node11" class="node">
<title>emergeDeselect</title>
<polygon fill="none" stroke="black" points="452.5,-691.5 275.25,-691.5 275.25,-655.5 452.5,-655.5 452.5,-691.5"/>
<text text-anchor="middle" x="363.88" y="-668.45" font-family="Times,serif" font-size="14.00">emerge &#45;&#45;deselect &lt;package&gt;</text>
</g>
<!-- emergeDeselect&#45;&gt;emergeDepclean -->
<g id="edge17" class="edge">
<title>emergeDeselect&#45;&gt;emergeDepclean</title>
<path fill="none" stroke="black" d="M317.54,-655.04C296.63,-646.04 272.23,-633.92 252.38,-619.5 228.77,-602.36 206.31,-577.83 190.97,-559.34"/>
<polygon fill="black" stroke="black" points="193.06,-557.37 184.04,-551.82 187.63,-561.78 193.06,-557.37"/>
<text text-anchor="middle" x="336.12" y="-606.2" font-family="Times,serif" font-size="14.00">This uninstalls the package &amp; </text>
<text text-anchor="middle" x="336.12" y="-589.7" font-family="Times,serif" font-size="14.00"> its unneeded dependencies</text>
</g>
<!-- guru&#45;&gt;gpoZugaina -->
<g id="edge9" class="edge">
<title>guru&#45;&gt;gpoZugaina</title>
<path fill="none" stroke="black" d="M1112.67,-515.34C1089.92,-505.05 1060.04,-491.3 1033.88,-478.5 1002.15,-462.97 966.69,-444.53 940.22,-430.55"/>
<polygon fill="black" stroke="black" points="942.01,-427.01 931.54,-425.42 938.74,-433.19 942.01,-427.01"/>
<text text-anchor="middle" x="1086.38" y="-465.2" font-family="Times,serif" font-size="14.00">It isn&#39;t there either?</text>
</g>
<!-- guru&#45;&gt;joint5 -->
<g id="edge7" class="edge">
<title>guru&#45;&gt;joint5</title>
<path fill="none" stroke="black" d="M1153.6,-514.21C1169.37,-456.51 1219.28,-273.83 1220.84,-268.14"/>
<text text-anchor="middle" x="1311.25" y="-402.95" font-family="Times,serif" font-size="14.00">You don&#39;t have guru enabled in your system?</text>
</g>
<!-- genlop -->
<g id="node14" class="node">
<title>genlop</title>
<polygon fill="none" stroke="black" points="2118.62,-691.5 2047.12,-691.5 2047.12,-655.5 2118.62,-655.5 2118.62,-691.5"/>
<text text-anchor="middle" x="2082.88" y="-668.45" font-family="Times,serif" font-size="14.00" fill="#0000cd">genlop &#45;lu</text>
</g>
<!-- joint1 -->
<g id="node15" class="node">
<title>joint1</title>
</g>
<!-- joint2&#45;&gt;emergeSearch -->
<g id="edge5" class="edge">
<title>joint2&#45;&gt;emergeSearch</title>
<path fill="none" stroke="black" d="M897.92,-813.47C900.6,-811.89 1028.28,-736.36 1094.27,-697.33"/>
<polygon fill="black" stroke="black" points="1095.71,-699.96 1102.54,-691.85 1092.15,-693.93 1095.71,-699.96"/>
<text text-anchor="middle" x="1125.38" y="-747.2" font-family="Times,serif" font-size="14.00">Search a package in </text>
<text text-anchor="middle" x="1125.38" y="-730.7" font-family="Times,serif" font-size="14.00"> overlays present in your system</text>
</g>
<!-- joint2&#45;&gt;gpoZugaina -->
<g id="edge6" class="edge">
<title>joint2&#45;&gt;gpoZugaina</title>
<path fill="none" stroke="black" d="M897.88,-813.43C897.9,-808.22 899.29,-528.19 899.74,-437.21"/>
<polygon fill="black" stroke="black" points="903.24,-437.4 899.79,-427.38 896.24,-437.36 903.24,-437.4"/>
<text text-anchor="middle" x="961.38" y="-606.2" font-family="Times,serif" font-size="14.00">Search the package in </text>
<text text-anchor="middle" x="961.38" y="-589.7" font-family="Times,serif" font-size="14.00"> &quot;all&quot; the overlays</text>
</g>
<!-- joint3&#45;&gt;emergeAsk -->
<g id="edge2" class="edge">
<title>joint3&#45;&gt;emergeAsk</title>
<path fill="none" stroke="black" d="M734.81,-813.4C732.9,-810.38 688.42,-740.12 663.47,-700.71"/>
<polygon fill="black" stroke="black" points="666.18,-699.46 657.88,-692.88 660.27,-703.2 666.18,-699.46"/>
<text text-anchor="middle" x="748.75" y="-738.95" font-family="Times,serif" font-size="14.00">a specific package</text>
</g>
<!-- joint4&#45;&gt;qlist -->
<g id="edge20" class="edge">
<title>joint4&#45;&gt;qlist</title>
<path fill="none" stroke="black" d="M1832.83,-813.42C1831.85,-811.75 1816.09,-784.67 1811.38,-760.5 1808.57,-746.1 1808.57,-741.9 1811.38,-727.5 1813.07,-718.83 1816.18,-709.78 1819.52,-701.66"/>
<polygon fill="black" stroke="black" points="1823.11,-703.21 1823.95,-692.64 1816.71,-700.38 1823.11,-703.21"/>
<text text-anchor="middle" x="1880.12" y="-738.95" font-family="Times,serif" font-size="14.00">listing installed packages</text>
</g>
<!-- joint4&#45;&gt;genlop -->
<g id="edge19" class="edge">
<title>joint4&#45;&gt;genlop</title>
<path fill="none" stroke="black" d="M1832.93,-813.48C1835.39,-812.84 1914.45,-792.12 1970.88,-760.5 2002.03,-743.04 2033.99,-717.61 2055.75,-698.93"/>
<polygon fill="black" stroke="black" points="2057.61,-701.08 2062.86,-691.88 2053.01,-695.8 2057.61,-701.08"/>
<text text-anchor="middle" x="2081.5" y="-747.2" font-family="Times,serif" font-size="14.00">Check installation and </text>
<text text-anchor="middle" x="2081.5" y="-730.7" font-family="Times,serif" font-size="14.00"> uninstallation history</text>
</g>
<!-- joint5&#45;&gt;eselectRepo -->
<g id="edge14" class="edge">
<title>joint5&#45;&gt;eselectRepo</title>
<path fill="none" stroke="black" d="M1220.88,-265.91C1220.88,-263.37 1220.88,-206.78 1220.88,-171.44"/>
<polygon fill="black" stroke="black" points="1224.38,-171.81 1220.88,-161.81 1217.38,-171.81 1224.38,-171.81"/>
<text text-anchor="middle" x="1261" y="-199.7" font-family="Times,serif" font-size="14.00">add an overlay</text>
</g>
<!-- joint6&#45;&gt;emergeDeselect -->
<g id="edge16" class="edge">
<title>joint6&#45;&gt;emergeDeselect</title>
<path fill="none" stroke="black" d="M411.74,-813.44C408.96,-812.24 364.2,-792.52 349.38,-760.5 340.84,-742.07 345.23,-719.34 351.35,-701.87"/>
<polygon fill="black" stroke="black" points="354.91,-703.36 355.28,-692.77 348.39,-700.82 354.91,-703.36"/>
<text text-anchor="middle" x="475.12" y="-738.95" font-family="Times,serif" font-size="14.00">This removes the package from the world file</text>
</g>
<!-- joint7 -->
<g id="node21" class="node">
<title>joint7</title>
</g>
<!-- joint8 -->
<g id="node22" class="node">
<title>joint8</title>
</g>
<!-- joint9 -->
<g id="node23" class="node">
<title>joint9</title>
</g>
<!-- joint10 -->
<g id="node24" class="node">
<title>joint10</title>
</g>
<!-- joint11 -->
<g id="node25" class="node">
<title>joint11</title>
</g>
</g>
</svg>
